<?xml version="1.0" encoding="UTF-8"?>
<!DOCTYPE svg PUBLIC "-//W3C//DTD SVG 1.1//EN" "http://www.w3.org/Graphics/SVG/1.1/DTD/svg11.dtd">
<!-- Creator: CorelDRAW X8 -->
<svg xmlns="http://www.w3.org/2000/svg" xml:space="preserve" width="420mm" height="594mm" version="1.1" shape-rendering="geometricPrecision" text-rendering="geometricPrecision" image-rendering="optimizeQuality" fill-rule="evenodd" clip-rule="evenodd"
viewBox="0 0 42000 59400" offsetX="3413525" offsetY="5820125" scaleX="3.475" scaleY="3.50"
 xmlns:xlink="http://www.w3.org/1999/xlink">
 <g id="ТР-2">
  <metadata id="CorelCorpID_0Corel-Layer"/>
  <poligon fill="#EBECEC" stroke="#2B2A29" stroke-width="20" points="16309 23164, 16047 23426, 16428 23816, 16699 23545, 16309 23164"/>
  <circle fill="#EBECEC" stroke="#2B2A29" stroke-width="20" cx="22516" cy="22647" r="203"/>
  <circle fill="#EBECEC" stroke="#2B2A29" stroke-width="20" cx="25885" cy="22266" r="186"/>
  <polygon fill="#EBECEC" stroke="#2B2A29" stroke-width="20" points="19180,10980 18943,10726 19468,11124 19772,11497 19468,11700 19400,11869 19366,11387 "/>
  <polygon fill="#898989" stroke="#2B2A29" stroke-width="20" points="9553,10413 9164,10015 9206,9778 9451,9160 9663,8686 9739,10125 10044,10557 10654,11200 10281,11302 9993,11615 9858,11302 9790,10735 "/>
  <circle fill="#EBECEC" stroke="#2B2A29" stroke-width="20" cx="24954" cy="5562" r="203"/>
 </g>
 <g id="С-5">
  <metadata id="CorelCorpID_1Corel-Layer"/>
  <polygon fill="#898989" stroke="#2B2A29" stroke-width="20" points="25479,20818 25555,20802 25606,21064 25631,21360 25428,21369 25420,21276 25513,21259 25506,20973 "/>
  <polygon fill="#898989" stroke="#2B2A29" stroke-width="20" points="25293,19913 25360,19887 25479,20429 25403,20454 25352,20319 25293,20327 25259,20302 "/>
  <polygon fill="#898989" stroke="#2B2A29" stroke-width="20" points="25056,19015 24954,18490 25064,18465 25191,19007 "/>
  <polygon fill="#898989" stroke="#2B2A29" stroke-width="20" points="18325,15493 18299,16153 18595,15510 18773,14773 18824,14468 18866,14079 18553,14595 18477,14782 18350,15298 "/>
 </g>
 <g id="С">
  <metadata id="CorelCorpID_2Corel-Layer"/>
  <polygon fill="#DCCF73" stroke="#2B2A29" stroke-width="20" points="19197,41409 19188,40529 20077,39962 20399,39792 20585,39750 20983,40393 21220,40800 21288,40986 21203,41384 20848,41596 20221,42095 19908,42349 19679,42527 18799,41790 "/>
  <polygon fill="#DCCF73" stroke="#2B2A29" stroke-width="20" points="12135,15798 12186,15628 12559,15620 12787,17102 12000,17178 11907,16738 11932,16644 12245,16560 "/>
  <polygon fill="#DCCF73" stroke="#2B2A29" stroke-width="20" points="13795,16975 13549,17025 13559,17086 13846,17042 14269,17203 15454,16958 15446,16907 14277,17102 "/>
  <polygon fill="#DCCF73" stroke="#2B2A29" stroke-width="20" points="12957,19354 12711,18338 12847,18312 12957,18304 13126,19354 "/>
  <polygon fill="#DCCF73" stroke="#2B2A29" stroke-width="20" points="18638,26838 18731,26517 19061,26601 18976,26898 "/>
  <polygon fill="#BBC274" stroke="#2B2A29" stroke-width="20" points="31245,35203 30872,33629 30914,33586 31468,33438 31541,33950 31930,34814 32405,35686 32540,35779 32405,35965 32151,35728 31829,35517 31372,35407 "/>
 </g>
 <g id="Р-4п">
  <metadata id="CorelCorpID_3Corel-Layer"/>
  <polygon fill="#BBC274" stroke="#2B2A29" stroke-width="20" points="31668,23985 31693,23833 32071,24098 31939,24383 31592,24341 31660,24095 31616,24067 "/>
 </g>
 <g id="Р-4">
  <metadata id="CorelCorpID_4Corel-Layer"/>
  <polygon fill="#BBC274" stroke="#2B2A29" stroke-width="20" points="31389,30521 31490,30487 31660,30631 31744,30775 31541,30851 "/>
  <polygon fill="#BBC274" stroke="#2B2A29" stroke-width="20" points="9409,52018 9468,51078 9748,51095 9782,51129 9900,51679 10188,51637 10213,51730 10207,52075 "/>
  <polygon fill="#BBC274" stroke="#2B2A29" stroke-width="20" points="11417,51850 11373,51569 12008,51857 12152,51840 12254,52044 12313,52238 12279,52450 12186,52568 11814,52585 11822,52509 11437,52544 "/>
  <polygon fill="#BBC274" stroke="#2B2A29" stroke-width="20" points="11458,53072 11437,52544 11822,52509 11814,52585 12186,52568 11763,53060 "/>
  <polygon fill="#BBC274" stroke="#2B2A29" stroke-width="20" points="13431,50689 13092,51383 13380,51155 13473,51171 13659,50816 13676,50740 "/>
  <polygon fill="#BBC274" stroke="#2B2A29" stroke-width="20" points="14498,49622 14675,49571 14828,49529 14701,49749 14252,50113 13676,50740 13585,50721 13769,50443 13864,50352 14074,50037 14303,49766 "/>
  <polygon fill="#BBC274" stroke="#2B2A29" stroke-width="20" points="32659,30030 32650,29937 32413,30310 32269,30657 32218,30809 32227,30953 32184,31046 32091,31613 31964,31986 31792,32571 31566,33121 31456,33358 31541,33950 31930,34814 32405,35686 32540,35779 32405,35965 32151,35728 31829,35517 31372,35407 31245,35203 31025,35220 30322,35203 29839,35186 29501,35246 28942,35466 28425,35517 28332,35500 28324,35559 28408,35711 28391,35796 28036,36202 27646,36533 27350,36609 26673,36981 26156,37345 25809,37650 25868,37811 25978,37820 26055,37904 25521,38395 25149,38683 24996,38963 24802,39132 24590,39301 24260,39725 24023,39750 23802,39852 23565,39860 23447,39962 23303,40038 23405,40139 23337,40182 23337,40241 23244,40283 23040,40300 22846,40503 22905,40563 22761,40681 22685,40588 22600,40664 22524,40647 22380,40741 22405,40808 22219,40893 22109,40910 21948,41003 22016,41079 21855,41189 21779,41181 21694,41206 21813,41376 21720,41486 21635,41359 21398,41503 21330,41503 21178,41553 21229,41706 20890,41917 20450,42366 20196,42578 20136,42569 20018,42654 20086,42730 19950,42900 19896,42924 19899,42950 19959,42984 19950,43043 19840,43060 19849,43111 19730,43204 19671,43213 19586,43272 19611,43314 19561,43374 19468,43314 19366,43408 19417,43475 19349,43501 19281,43611 19230,43577 19197,43602 19087,43501 19264,43340 19307,43382 19442,43221 19425,43137 19053,43306 18985,43441 19036,43712 18689,44043 18341,44432 18507,44546 18562,44466 18917,44068 18976,44102 19044,44059 19036,43966 19264,43797 19374,43839 19442,43738 19510,43628 19688,43484 19849,43306 19899,43213 20119,43094 20213,43204 21432,42171 22151,41706 23024,41020 22964,40952 23049,40876 23083,40800 23235,40673 23286,40681 23294,40597 23244,40563 23650,40207 23781,40474 23836,40419 23802,40360 24514,40021 25259,39344 26131,38700 26723,38336 27231,37769 27477,37574 28205,37024 28891,36558 30212,35889 30576,35779 31236,35804 31422,35830 31863,35974 32388,36279 32676,36245 32955,35991 33006,35711 32565,34814 32464,34873 32692,35415 32574,35491 32252,34704 32125,34763 32015,34534 32142,34475 31846,33823 31837,33518 32278,32333 32252,31994 32244,31724 32311,30995 32320,30792 "/>
 </g>
 <g id="Р-3п">
  <metadata id="CorelCorpID_5Corel-Layer"/>
  <polygon fill="#BBC274" stroke="#2B2A29" stroke-width="20" points="13414,10464 12423,7839 13507,7644 13609,7941 14117,8245 14726,9109 14540,9270 14252,9499 14125,9642 14142,9812 13812,10057 13693,10083 13499,10252 13499,10413 "/>
  <polygon fill="#BBC274" stroke="#2B2A29" stroke-width="20" points="13388,10980 13329,10819 13668,10540 14252,9998 14413,10049 14557,10023 15649,11226 14997,11945 14294,12504 14150,12513 13278,12580 13126,11954 13185,11387 13312,11243 "/>
  <polygon fill="#BBC274" stroke="#2B2A29" stroke-width="20" points="22930,9854 22846,9803 21754,10898 22270,11387 22871,10769 22880,10565 23142,10277 23040,9803 "/>
  <polygon fill="#BBC274" stroke="#2B2A29" stroke-width="20" points="21948,11937 20721,12098 20670,12047 21339,11378 "/>
  <polygon fill="#BBC274" stroke="#2B2A29" stroke-width="20" points="17647,11785 18477,10650 18595,10752 17512,12225 17512,12352 17427,13368 18011,13546 18003,13605 18384,13715 18401,13630 18739,13715 18909,13021 18951,12631 19027,12648 18976,13097 18773,13910 18502,13817 18443,14079 18663,14147 18392,14663 18333,14917 18291,15019 18198,15044 18130,15053 18367,14308 18418,14181 18460,14181 18460,14130 18384,14121 18443,13876 18282,13808 17554,13563 17588,13486 17410,13427 16834,14257 16563,14071 16199,14502 16157,14485 16233,14206 16293,14240 16538,13960 16792,14096 17300,13385 17334,12343 16547,12301 16487,12022 17105,12030 17393,11801 "/>
  <polygon fill="#BBC274" stroke="#2B2A29" stroke-width="20" points="24133,10498 24141,10303 24429,10286 24446,10506 24378,10531 24395,10963 24336,10963 24336,10591 24183,10599 24175,10506 "/>
  <polygon fill="#BBC274" stroke="#2B2A29" stroke-width="20" points="18452,19345 18579,20065 18418,20040 18401,19921 18528,19938 18485,19574 18418,19574 18418,19642 18333,19633 18358,19557 18468,19540 "/>
  <polygon fill="#BBC274" stroke="#2B2A29" stroke-width="20" points="24294,6578 24327,6544 24463,6620 24806,6901 24412,7348 24192,7526 24073,7602 23929,7754 24048,7831 24082,8008 23786,8068 23752,7915 24014,7577 23675,7238 23701,7196 23963,7424 24082,7340 24167,7424 24607,6950 24531,6874 24590,6815 "/>
  <polygon fill="#BBC274" stroke="#2B2A29" stroke-width="20" points="34318,11531 34343,11420 34555,11158 34606,11014 34733,11420 34293,12055 "/>
  <polygon fill="#BBC274" stroke="#2B2A29" stroke-width="20" points="15539,18634 15260,18439 15336,18355 15702,18589 15641,18676 "/>
  <polygon fill="#BBC274" stroke="#2B2A29" stroke-width="20" points="17906,44268 17927,44415 18062,44381 18113,44424 18231,44432 18341,44432 18507,44546 18358,44762 18333,44855 18206,44923 18214,45101 18240,45143 17681,45761 16860,46693 16386,47243 15996,47709 15734,48259 15641,48598 14828,49529 14498,49622 15150,48386 15251,48081 15310,48107 15500,47756 15937,47048 16267,46498 16267,46303 16369,46075 16741,45558 16851,45473 16953,45363 17055,45270 17080,45126 17148,45025 17309,44821 17503,44593 17723,44390 17800,44339 "/>
  <polygon fill="#BBC274" stroke="#2B2A29" stroke-width="20" points="25978,37820 25868,37811 25316,38104 24912,38387 24691,38395 24768,38463 24810,38429 24920,38556 24810,38725 24514,39047 24336,39276 24294,39250 24133,39445 24040,39471 23811,39098 23788,38984 23633,38497 23591,38514 23802,39225 23760,39250 23777,39344 23836,39318 23896,39572 23726,39657 22866,40183 22532,40368 21516,41045 21042,40309 20958,40055 20687,39708 20585,39750 21220,40800 21288,40986 21203,41384 20848,41596 19679,42527 19475,42357 19408,42392 19374,42510 19061,42747 18985,42950 19095,43043 18943,43170 18782,43264 18659,43424 18477,43518 18299,43966 18223,43983 17906,44268 17927,44415 18062,44381 18113,44424 18231,44432 18341,44432 18689,44043 19036,43712 18985,43441 19053,43306 19425,43137 19442,43221 19307,43382 19264,43340 19087,43501 19197,43602 19230,43577 19281,43611 19349,43501 19417,43475 19366,43408 19468,43314 19561,43374 19611,43314 19586,43272 19671,43213 19730,43204 19849,43111 19840,43060 19950,43043 19959,42984 19899,42950 19896,42924 19950,42900 20086,42730 20018,42654 20136,42569 20196,42578 20450,42366 20890,41917 21229,41706 21178,41553 21330,41503 21398,41503 21635,41359 21720,41486 21813,41376 21694,41206 21779,41181 21855,41189 22016,41079 21948,41003 22109,40910 22219,40893 22405,40808 22380,40741 22524,40647 22600,40664 22685,40588 22761,40681 22905,40563 22846,40503 23040,40300 23244,40283 23337,40241 23337,40182 23405,40139 23303,40038 23447,39962 23565,39860 23802,39852 24023,39750 24260,39725 24590,39301 24802,39132 24996,38963 25149,38683 25521,38395 26055,37904 "/>
  <polygon fill="#BBC274" stroke="#2B2A29" stroke-width="20" points="22321,30267 21906,30386 21914,30157 "/>
  <poligon fill="#BBC274" stroke="#2B2A29" stroke-width="20" points="36426 16331, 36486 15764, 36613 15561, 36782 15595, 36646 16018, 36706 16314, 36519 17102, 36646 17584, 36502 18177, 35715 19684, 35368 20548, 35038 20937, 34348 21970, 34064 22884, 33996 23612, 34064 24053, 33946 24713, 33658 25441, 33734 26212, 33666 26881, 33429 27668, 32836 28726, 32769 28794, 32879 28455, 33133 27651, 33184 27084, 33268 26923, 33294 26703, 33251 26533, 33302 26051, 33209 25763, 33226 25424, 33390 24823, 33548 24485, 33522 24027, 33463 23917, 33412 23121, 33454 22842, 33463 22563, 33666 22139, 33869 21606, 34022 21123, 34276 20683, 34555 19938, 34928 18981, 35038 18634, 35148 18634, 35207 18465, 36028 17373, 36223 16678, 36350 16602, 36426 16331"/>
 </g>
 <g id="Р-2п">
  <metadata id="CorelCorpID_6Corel-Layer"/>
  <polygon fill="#FECC00" stroke="#2B2A29" stroke-width="20" points="12533,52475 12118,53314 12398,53432 14023,51104 14362,51358 14396,51298 14049,51044 14379,50579 14896,50147 15175,49868 15395,49631 16157,48530 16360,48691 16089,49072 16140,49114 16428,48742 16843,48750 16843,48680 16453,48682 16199,48462 17224,47099 18011,46142 18706,45177 19959,44000 21737,42527 22736,41968 24040,40766 24632,40470 24675,40427 24734,40554 24785,40520 24725,40376 25411,39733 25691,39521 26495,38954 27316,38319 27934,37820 28188,37557 29297,36871 29492,37286 30593,36947 30567,36888 29517,37210 29348,36837 30254,36380 30169,36219 30440,36143 30517,36439 31033,36329 31033,36372 31118,36355 31092,36262 30550,36397 30491,36126 30737,36042 31363,36025 31422,36067 31380,36177 31431,36296 31482,36304 31372,36566 31414,36575 31541,36329 31685,36380 31575,36643 31626,36660 31744,36406 32083,36566 31634,37345 31702,37388 32168,36600 32354,36693 32650,36693 32803,36660 33192,36406 33319,36245 33378,36008 33344,35796 33167,35339 32955,34899 32515,33569 32836,32138 32845,32105 33107,32130 33107,32105 32845,32071 32786,31656 32930,31664 32938,31622 32769,31622 32853,31004 33048,30995 33048,30962 32845,30970 32980,30377 33251,29615 33446,28506 33539,28354 33751,27939 34233,27211 34259,26677 34335,25340 34623,24214 34708,24044 34589,23257 34758,22715 34978,22224 35334,21631 35774,20802 36105,20937 36130,20869 35808,20742 36570,19176 36850,19269 36867,19201 36435,19049 36900,17872 36943,17491 37163,17567 37171,17533 36951,17457 37104,16958 36731,16814 36799,16560 36900,16297 36824,16238 36867,16094 37010,15857 37163,15764 36782,15595 36646,16018 36706,16314 36519,17102 36646,17584 36502,18177 35715,19684 35368,20548 35038,20937 34348,21970 34064,22884 33996,23612 34064,24053 33946,24713 33658,25441 33734,26212 33666,26881 33429,27668 32836,28726 32828,28930 33031,29497 32828,29962 32481,30733 32438,31681 32438,32003 32540,31978 32498,32511 32142,33518 32328,33899 32464,34577 32565,34814 33006,35711 32955,35991 32676,36245 32388,36279 31863,35974 31422,35830 30576,35779 30212,35889 28891,36558 28205,37024 27477,37574 27231,37769 26723,38336 26131,38700 25259,39344 24514,40021 23802,40360 23836,40419 23781,40474 23862,40639 23786,40664 23684,40478 23684,40427 23345,40766 23024,41020 22151,41706 21432,42171 20213,43204 19849,43535 19789,43535 19738,43585 19722,43645 19264,44085 19120,44203 18706,44542 18680,44627 18494,44847 18214,45101 18206,44923 18333,44855 18358,44762 18507,44546 18470,44520 17148,45677 15488,48183 14828,49529 14701,49749 14252,50113 13676,50740 13663,50801 13473,51171 13427,51163 13211,51442 "/>
 </g>
 <g id="Р-3">
  <metadata id="CorelCorpID_7Corel-Layer"/>
  <polygon fill="#BBC274" stroke="#2B2A29" stroke-width="20" points="22786,7314 22575,7077 22744,6908 22795,6933 22939,6789 23193,7035 23201,7102 22939,7382 22888,7348 22829,7399 22736,7348 "/>
  <polygon fill="#BBC274" stroke="#2B2A29" stroke-width="20" points="22168,18761 22160,18473 22541,18422 22566,18549 22617,18583 22685,18566 22719,18389 22880,19362 22482,19430 22355,19447 22292,19052 22270,18778 22245,18744 "/>
  <polygon fill="#BBC274" stroke="#2B2A29" stroke-width="20" points="30406,25517 30263,25103 30635,24637 30694,24603 30737,24772 30711,25467 "/>
  <polygon fill="#BBC274" stroke="#2B2A29" stroke-width="20" points="19518,25204 19442,25594 19561,25602 19772,25721 19772,25755 19916,25839 19908,26009 19992,26025 20077,26533 20162,26525 20111,26246 20179,26212 20500,26390 20517,26559 20357,26584 20348,26500 20246,26508 20280,26703 20467,26686 20517,27126 20636,27109 20560,26720 20814,26169 21491,25780 21627,25450 21669,25145 22609,25111 22609,24993 21584,25060 21516,25458 21381,25729 20780,26119 20348,26102 20323,26025 20348,25873 20153,25721 20052,25560 19984,25340 19899,25340 19891,25230 19611,25213 19595,25314 "/>
  <polygon fill="#BBC274" stroke="#2B2A29" stroke-width="20" points="16631,23147 16801,22563 17029,22842 17046,22918 17207,22969 19053,22707 19042,22648 19120,22630 22321,22207 22329,22275 21923,22317 21881,22419 21288,22486 21279,22588 21051,22580 21085,22698 20924,22715 20898,22469 20255,22580 20297,22800 19383,22893 19383,22698 19171,22715 19180,22918 16733,23240 "/>
  <polygon fill="#BBC274" stroke="#2B2A29" stroke-width="20" points="25326,22131 25313,21815 25640,21767 25657,21919 25555,22080 25445,22131 "/>
  <polygon fill="#BBC274" stroke="#2B2A29" stroke-width="20" points="25809,2031 25919,1565 26173,1591 26148,1895 26283,1929 26351,1633 26613,1675 26495,2310 26359,2454 "/>
  <polygon fill="#BBC274" stroke="#2B2A29" stroke-width="20" points="17520,15637 17292,15451 18071,15400 18113,15637 18049,15846 17994,15840 17898,16192 17723,15857 17546,15755 "/>
  <polygon fill="#BBC274" stroke="#2B2A29" stroke-width="20" points="18537,15894 18471,16019 18392,16399 18452,16390 18460,16314 18773,16187 18765,16094 18714,16153 18663,16103 18672,16035 18528,16069 18570,15959 18528,15916 "/>
  <polygon fill="#BBC274" stroke="#2B2A29" stroke-width="20" points="17444,17398 17571,16848 17859,16822 17842,16975 17943,16992 17838,17365 "/>
  <poligon fill="#BBC274" stroke="#2B2A29" stroke-width="20" points="21516 14587, 21669 14054, 21991 13419, 22050 13427, 22033 13563, 21813 14020, 21881 14011, 21940 14037, 21872 14257, 21796 14240, 21821 14164, 21762 14164, 21652 14604, 21516 14587"/>
  <polygon fill="#BBC274" stroke="#2B2A29" stroke-width="20" points="21847,16238 21830,16187 22180,16150 22228,16594 22016,16644 22101,16543 22160,16526 22109,16323 22050,16314 22024,16213 "/>
  <polygon fill="#BBC274" stroke="#2B2A29" stroke-width="20" points="21136,16356 21347,16331 21440,16831 21347,16873 21288,16382 21229,16390 21212,16458 21144,16424 "/>
  <polygon fill="#BBC274" stroke="#2B2A29" stroke-width="20" points="21376,17259 21364,17144 21483,17127 21508,17296 21533,17474 21423,17474 "/>
  <polygon fill="#BBC274" stroke="#2B2A29" stroke-width="20" points="31803,2641 31736,2446 31803,2310 31643,1853 31727,1828 32261,3453 30627,4325 30525,4249 32159,3369 31930,2683 "/>
  <polygon fill="#BBC274" stroke="#2B2A29" stroke-width="20" points="33641,8051 33167,7704 33378,7543 33370,7450 33539,7382 33759,8042 "/>
  <polygon fill="#BBC274" stroke="#2B2A29" stroke-width="20" points="33929,9524 33852,9116 34026,9065 34191,9693 34059,9711 33996,9524 "/>
  <polygon fill="#BBC274" stroke="#2B2A29" stroke-width="20" points="25157,17804 24624,15383 24759,15374 24793,15468 24708,15544 24708,15620 24759,15628 24785,15679 24725,15713 24861,16314 24903,16331 24996,16052 25039,16069 24903,16458 25030,16475 25005,16594 24920,16577 25005,16975 25157,16992 25149,17042 25039,17093 25081,17339 25123,17415 "/>
  <polygon fill="#BBC274" stroke="#2B2A29" stroke-width="20" points="22041,29463 22456,27211 22551,27225 22499,27566 22422,27549 22236,28599 22329,28608 22405,28735 22549,28803 22727,28853 23405,29006 23523,28980 23557,28828 24006,28955 24090,28913 25072,29175 25377,29344 25276,29429 25047,29268 24945,29260 24912,29209 24065,28997 24031,29040 23701,28963 23650,29158 22668,28989 22668,28921 22439,28887 22439,28819 22304,28709 22228,28684 22090,29475 "/>
  <polygon fill="#BBC274" stroke="#2B2A29" stroke-width="20" points="20822,28625 20585,27262 20695,27245 20890,28532 22016,28735 21999,28853 "/>
  <polygon fill="#BBC274" stroke="#2B2A29" stroke-width="20" points="24065,24874 23743,22580 23879,22580 24387,25958 24421,26644 24302,27177 24192,27152 24302,26559 24277,25924 24124,25009 22770,25103 22744,24967 "/>
  <polygon fill="#BBC274" stroke="#2B2A29" stroke-width="20" points="19518,36931 21483,35847 22981,34509 23091,34721 23176,35009 23794,34653 24378,35288 24336,35457 24361,35618 24319,35762 23294,36262 23523,38251 22913,38539 22185,39013 21686,39310 21339,39420 20644,39487 20607,39427 20865,39267 "/>
  <polygon fill="#BBC274" stroke="#2B2A29" stroke-width="20" points="16885,15154 16750,15061 16470,14841 16436,14900 16724,15120 16674,15171 16750,15230 "/>
  <polygon fill="#BBC274" stroke="#2B2A29" stroke-width="20" points="11537,46277 11907,46015 12008,46345 12110,47353 12059,47573 12034,47802 12068,47963 12059,48208 12093,48454 12000,48471 11966,48623 11897,48629 11890,49360 11949,49351 11941,49410 12203,49444 12203,49597 12652,49588 12483,49385 12474,49038 12406,48852 12296,47615 12288,47505 13439,47488 13405,47438 12254,47429 12212,46320 12131,45964 11907,46015 11551,46269 "/>
  <polygon fill="#BBC274" stroke="#2B2A29" stroke-width="20" points="30186,33603 29949,32528 30254,32519 30406,32528 30339,32316 30347,32079 30271,32020 30051,31986 29517,32587 29644,32680 29670,32773 29941,32723 30009,33087 30144,33806 30279,33781 30296,33823 30872,33629 30914,33586 31468,33438 31456,33358 31041,33485 30398,33629 30220,33654 "/>
  <polygon fill="#BBC274" stroke="#2B2A29" stroke-width="20" points="31084,27600 31084,27660 31325,27807 31516,27998 31566,27964 31719,28142 31736,28295 31812,28422 32176,28701 32278,28879 32083,29048 31761,29454 31719,29742 31795,29810 31617,30250 31543,30313 31719,30437 31744,30310 31837,30005 31846,29768 31914,29607 32125,29336 32252,29192 32286,28997 32515,28896 32726,28913 32769,28794 32565,28735 32599,28523 32125,28481 31905,28396 31795,28091 31473,27753 "/>
  <polygon fill="#BBC274" stroke="#2B2A29" stroke-width="20" points="12118,53314 11729,53136 12279,52450 12313,52238 12254,52044 12669,51536 12796,51417 12999,51527 13092,51383 13380,51155 13427,51163 13211,51442 12533,52475 "/>
 </g>
 <g id="Р-1">
  <metadata id="CorelCorpID_8Corel-Layer"/>
  <polygon fill="#BBC274" stroke="#2B2A29" stroke-width="20" points="27648,16262 27672,16213 28061,16263 28408,16340 28468,16390 28603,16373 28654,16797 28612,17288 27807,17389 27790,17254 27545,17279 27485,16907 27435,16801 27426,16627 27655,16585 27672,16526 "/>
  <polygon fill="#BBC274" stroke="#2B2A29" stroke-width="20" points="32032,25873 31846,25865 31956,25517 31973,25103 32194,25166 32291,24947 32472,25026 32582,24739 32726,24806 32633,25043 33099,25230 33065,25382 33226,25424 33209,25763 33302,26051 33251,26533 33294,26703 33107,26694 33107,26644 32913,26644 32896,26745 32244,26728 32244,26584 31990,26550 31566,26542 31651,26390 31710,26406 31753,26483 32244,26474 32261,26330 32015,26322 "/>
 </g>
 <g id="КС-5п">
  <metadata id="CorelCorpID_9Corel-Layer"/>
  <polygon fill="#A79ECD" stroke="#2B2A29" stroke-width="20" points="30584,26398 30483,26042 30838,25966 30906,26313 "/>
 </g>
 <g id="КС-5">
  <metadata id="CorelCorpID_10Corel-Layer"/>
  <polygon fill="#AF9CA7" stroke="#2B2A29" stroke-width="20" points="21025,24104 21008,23875 21288,23833 21212,24129 "/>
  <polygon fill="#AF9CA7" stroke="#2B2A29" stroke-width="20" points="21313,24002 21330,23875 21677,23850 21686,23985 "/>
  <polygon fill="#AF9CA7" stroke="#2B2A29" stroke-width="20" points="19891,25221 19603,25213 19595,25323 19637,25365 19899,25365 "/>
  <polygon fill="#AF9CA7" stroke="#2B2A29" stroke-width="20" points="23506,20598 23303,20209 23388,20175 23413,20226 23464,20217 23506,20302 23472,20336 23582,20573 "/>
  <polygon fill="#AF9CA7" stroke="#2B2A29" stroke-width="20" points="17918,19498 18189,19464 18214,19726 18011,19726 18011,19946 17884,19904 17935,19735 17876,19726 "/>
  <polygon fill="#AF9CA7" stroke="#2B2A29" stroke-width="20" points="20594,16797 20568,16500 20077,16585 20026,16653 20060,16915 "/>
  <polygon fill="#AF9CA7" stroke="#2B2A29" stroke-width="20" points="20856,15400 20407,15391 20331,15442 20255,15823 20771,15832 20865,15696 "/>
  <polyline fill="none" stroke="#2B2A29" stroke-width="20" points="20162,14629 20526,14579 20458,14824 20221,14858 20179,14782 20183,14626 "/>
  <polygon fill="#AF9CA7" stroke="#2B2A29" stroke-width="20" points="23802,15010 23819,14655 24226,14621 24310,15010 24099,15061 23887,15171 "/>
  <polygon fill="#AF9CA7" stroke="#2B2A29" stroke-width="20" points="21432,15789 21415,15569 21872,15569 21974,15611 21974,15738 "/>
  <polygon fill="#AF9CA7" stroke="#2B2A29" stroke-width="20" points="23261,16348 23231,16166 23438,16162 23498,16403 23396,16433 23362,16407 23366,16352 "/>
  <polygon fill="#AF9CA7" stroke="#2B2A29" stroke-width="20" points="17952,16526 17817,16492 17994,15840 18231,15865 18198,16086 18045,16594 17944,16585 "/>
  <polygon fill="#AF9CA7" stroke="#2B2A29" stroke-width="20" points="17884,15214 17325,15256 17300,15408 17927,15366 17960,15315 17876,15315 "/>
  <polygon fill="#AF9CA7" stroke="#2B2A29" stroke-width="20" points="21948,11937 22507,12496 23040,12013 22837,11793 "/>
  <polygon fill="#AF9CA7" stroke="#2B2A29" stroke-width="20" points="21635,12792 21525,12699 21728,12462 21770,12487 21864,12403 22024,12580 21974,12690 21838,12741 "/>
  <polygon fill="#AF9CA7" stroke="#2B2A29" stroke-width="20" points="18858,9981 18824,9930 19214,9549 19713,10074 19476,10320 19425,10252 19163,10531 18926,10328 18968,10294 18909,10235 18934,10193 18849,10083 18943,9990 18892,9930 "/>
  <polygon fill="#AF9CA7" stroke="#2B2A29" stroke-width="20" points="23616,14341 22964,13850 23159,13622 23210,13656 23252,13639 23379,13732 23455,13546 23506,13774 23464,13918 23489,13960 23557,13969 23574,14198 23625,14198 "/>
  <polygon fill="#AF9CA7" stroke="#2B2A29" stroke-width="20" points="10891,18228 10662,16822 10874,16780 11009,16738 10874,16924 11001,17982 11170,17931 11204,17999 11797,17813 11763,17576 11839,17533 11873,17652 12830,17389 12872,17703 12677,17754 12847,18312 12711,18338 12957,19354 11077,19599 "/>
  <polygon fill="#AF9CA7" stroke="#2B2A29" stroke-width="20" points="22786,8313 22634,8195 22795,8034 22880,7983 22956,8034 23024,8262 22973,8305 "/>
  <polygon fill="#AF9CA7" stroke="#2B2A29" stroke-width="20" points="23701,39530 23354,38624 23591,38514 23802,39225 23760,39250 23777,39344 23836,39318 23896,39572 23726,39657 "/>
  <polygon fill="#AF9CA7" stroke="#2B2A29" stroke-width="20" points="20458,14824 20221,14858 20179,14782 20183,14626 20526,14579 "/>
  <polygon fill="#AF9CA7" stroke="#2B2A29" stroke-width="20" points="26732,16484 26836,16145 27088,16213 27096,16111 27358,16179 27350,16297 27477,16263 27469,16187 27570,16200 27574,16242 27646,16242 27672,16526 27655,16585 27426,16627 27443,16839 27384,16881 27071,16958 27054,16848 27096,16780 27062,16577 "/>
  <polygon fill="#AF9CA7" stroke="#2B2A29" stroke-width="20" points="22643,23663 22609,23426 22964,23392 22998,23621 "/>
  <polygon fill="#AF9CA7" stroke="#2B2A29" stroke-width="20" points="23091,24019 23024,23392 23235,23375 23261,23333 23853,23231 24014,24451 23591,24485 23582,24595 23252,24552 23269,24434 23523,24391 23464,24070 23151,24112 "/>
  <polygon fill="#AF9CA7" stroke="#2B2A29" stroke-width="20" points="18579,23257 18722,24264 18113,24349 18892,24552 18782,25018 17791,24772 17520,25729 17554,25738 17537,25822 17198,25729 17046,26246 17639,26398 17596,26601 17825,26618 18638,26838 18731,26517 19061,26601 19290,25729 19095,25687 19146,25382 19357,25424 19349,24959 19061,23215 "/>
  <polygon fill="#AF9CA7" stroke="#2B2A29" stroke-width="20" points="17969,27448 18138,26787 18968,26982 18849,27439 17876,27609 17833,27566 17292,27685 17452,27050 17986,27168 17952,27380 "/>
  <polygon fill="#AF9CA7" stroke="#2B2A29" stroke-width="20" points="15641,23926 15573,23824 16047,23723 16132,23782 15962,24400 15852,25009 15090,27558 14980,28388 14548,28422 14548,28210 15183,25788 "/>
  <polygon fill="#AF9CA7" stroke="#2B2A29" stroke-width="20" points="25183,36880 24954,36321 25547,35813 25792,36279 "/>
  <polygon fill="#AF9CA7" stroke="#2B2A29" stroke-width="20" points="22761,34467 22702,33984 23692,33205 23853,33442 "/>
  <polygon fill="#AF9CA7" stroke="#2B2A29" stroke-width="20" points="18714,12580 18731,12420 19036,12496 19027,12648 "/>
  <polygon fill="#B2B3B3" stroke="#2B2A29" stroke-width="20" points="16928,19819 17055,18956 17283,19108 16343,22893 16174,22859 16623,21030 "/>
  <polygon fill="#B2B3B3" stroke="#2B2A29" stroke-width="20" points="25682,23274 25657,23071 25953,23045 25978,23265 "/>
  <polygon fill="#B2B3B3" stroke="#2B2A29" stroke-width="20" points="26148,22935 26215,22766 26664,24239 26707,25882 26588,26254 26639,25822 26605,25035 26461,24298 "/>
  <polygon fill="#B2B3B3" stroke="#2B2A29" stroke-width="20" points="26241,27397 26207,27778 26249,27549 26467,27065 26766,26288 26588,26254 "/>
 </g>
 <g id="КС-4">
  <metadata id="CorelCorpID_11Corel-Layer"/>
  <polygon fill="#D2CDE7" stroke="#2B2A29" stroke-width="20" points="17476,27055 17546,26762 17698,26686 18087,26779 17986,27168 "/>
  <polygon fill="#C5C6C6" stroke="#2B2A29" stroke-width="20" points="15793,26220 16013,25467 17185,25773 17046,26246 17580,26383 17529,26652 "/>
  <polygon fill="#C5C6C6" stroke="#2B2A29" stroke-width="20" points="15581,26957 15751,26313 16479,26517 16129,27893 15835,27939 "/>
 </g>
 <g id="КС-3">
  <metadata id="CorelCorpID_12Corel-Layer"/>
  <polygon fill="#C5C6C6" stroke="#2B2A29" stroke-width="20" points="28485,12140 28468,11903 28942,11886 29077,11861 29128,12767 28417,12767 28377,12151 "/>
  <polygon fill="#B2B3B3" stroke="#2B2A29" stroke-width="20" points="15065,46134 14921,45321 15293,45279 15353,46100 "/>
  <polygon fill="#BBC274" stroke="#2B2A29" stroke-width="20" points="8850,25898 8681,25120 12440,24442 12762,24459 13388,24307 15378,23858 15573,23824 15641,23926 14583,28079 14548,28422 14591,29607 11695,29929 11746,30335 9274,30640 9138,30352 8698,26085 "/>
 </g>
 <g id="КС-2">
  <metadata id="CorelCorpID_13Corel-Layer"/>
  <polygon fill="#C5C6C6" stroke="#2B2A29" stroke-width="20" points="18325,40630 18367,37261 18722,37218 19518,36931 20865,39267 20441,39530 20170,39648 18536,40656 "/>
 </g>
 <g id="КЛ">
  <metadata id="CorelCorpID_14Corel-Layer"/>
  <polygon fill="#AB8082" stroke="#2B2A29" stroke-width="20" points="32523,21487 32083,21589 32024,22317 31922,22817 32760,23181 33167,22613 33378,22207 33251,22215 33133,22173 33116,21995 32819,22038 32786,21868 32591,21885 "/>
  <polygon fill="#AB8082" stroke="#2B2A29" stroke-width="20" points="32752,24078 32489,23951 32819,23494 33446,23714 33463,23917 33522,24027 33548,24485 "/>
  <polygon fill="#AB8082" stroke="#2B2A29" stroke-width="20" points="32193,25170 31973,25103 32083,24645 32227,24298 32955,24671 32828,24849 32726,24806 32582,24739 32472,25026 32261,24933 "/>
  <polygon fill="#AB8082" stroke="#2B2A29" stroke-width="20" points="31710,26406 31651,26390 31846,25865 32032,25873 32015,26322 32261,26330 32244,26474 31753,26483 "/>
  <polygon fill="#AB8082" stroke="#2B2A29" stroke-width="20" points="32252,29192 32286,28997 32515,28896 32726,28913 32769,29209 32819,29556 32650,29937 32557,30064 32413,30310 32269,30657 31719,30437 31744,30310 31837,30005 31846,29768 31914,29607 32125,29336 "/>
  <polygon fill="#AB8082" stroke="#2B2A29" stroke-width="20" points="28840,33510 28315,34120 27638,34763 28425,35517 28628,35500 28942,35466 29501,35246 29450,34687 29517,34492 29501,34348 29162,33925 29458,33772 29390,33688 29399,33459 29374,33417 29069,33637 "/>
  <polygon fill="#AB8082" stroke="#2B2A29" stroke-width="20" points="13609,49292 13617,48462 14184,48445 14184,48377 15150,48386 14658,49326 "/>
  <polygon fill="#AB8082" stroke="#2B2A29" stroke-width="20" points="10213,51730 10188,53178 11458,53085 11424,52221 11424,51900 11373,51569 11306,51544 11094,51629 "/>
 </g>
 <g id="КВТ">
  <metadata id="CorelCorpID_15Corel-Layer"/>
  <polygon fill="#7690C9" stroke="#2B2A29" stroke-width="20" points="33505,11344 33217,11226 33412,10794 33692,10929 "/>
  <polygon fill="#7690C9" stroke="#2B2A29" stroke-width="20" points="27782,12792 27706,11928 28036,11928 28053,12098 28374,12106 28417,12767 "/>
  <polygon fill="#7690C9" stroke="#2B2A29" stroke-width="20" points="32041,13842 31744,13850 31970,13298 32261,12589 32794,12843 "/>
  <polygon fill="#7690C9" stroke="#2B2A29" stroke-width="20" points="35351,15061 35063,15332 35055,14756 35427,14951 "/>
  <polygon fill="#7690C9" stroke="#2B2A29" stroke-width="20" points="33040,17779 32963,17347 33311,17322 33632,17195 33649,17703 "/>
  <polygon fill="#7690C9" stroke="#2B2A29" stroke-width="20" points="30136,18880 30068,18363 30533,18295 30576,18820 "/>
  <polygon fill="#7690C9" stroke="#2B2A29" stroke-width="20" points="29399,19455 29297,18659 29932,18566 30025,19354 "/>
  <polygon fill="#7690C9" stroke="#2B2A29" stroke-width="20" points="29060,21081 28840,19633 29272,19565 29458,20641 29755,20590 29788,20785 29882,20768 29890,20937 "/>
  <polygon fill="#7690C9" stroke="#2B2A29" stroke-width="20" points="30279,20107 30237,19811 30881,19718 31397,19853 31414,20099 31236,20124 31160,20387 30610,20040 "/>
  <polygon fill="#7690C9" stroke="#2B2A29" stroke-width="20" points="33683,20023 33573,19786 33861,19743 33903,20116 33852,20124 33878,20260 33395,20310 33370,20141 33573,20141 "/>
  <polygon fill="#7690C9" stroke="#2B2A29" stroke-width="20" points="33996,22690 33810,22613 34174,21707 34420,21801 34276,22139 34200,22215 34081,22453 "/>
  <polygon fill="#7690C9" stroke="#2B2A29" stroke-width="20" points="32354,24129 32489,23951 32752,24078 32532,24451 32227,24298 "/>
  <polygon fill="#7690C9" stroke="#2B2A29" stroke-width="20" points="31168,24298 31262,23748 31693,23833 31668,23985 31609,24078 31660,24095 31592,24341 "/>
  <polygon fill="#7690C9" stroke="#2B2A29" stroke-width="20" points="28129,26796 27596,26576 28281,25721 28349,25780 28231,25924 28434,26085 28493,26009 28561,26068 28569,26186 28628,26237 28781,26161 28823,26203 28645,26296 28722,26423 28400,26694 28247,26559 28163,26728 "/>
  <polygon fill="#7690C9" stroke="#2B2A29" stroke-width="20" points="30271,26466 30025,25966 29492,26186 29636,26677 29560,26703 29619,26923 29797,26872 29831,27101 30237,27135 30576,27312 30610,27219 30373,26813 30423,26779 "/>
  <polygon fill="#7690C9" stroke="#2B2A29" stroke-width="20" points="30390,28481 30313,28210 30508,28151 30542,28261 30914,28159 30923,28252 30754,28286 30787,28422 30957,28371 30982,28523 30982,28819 30644,28879 30618,28633 30542,28642 30550,28591 30330,28608 30322,28498 "/>
  <polygon fill="#7690C9" stroke="#2B2A29" stroke-width="20" points="31846,30843 31820,30792 31897,30750 32066,30758 32218,30809 32227,30953 32184,31046 32091,31613 31812,31571 31829,31503 31778,31495 31897,31232 31897,30860 "/>
  <polygon fill="#7690C9" stroke="#2B2A29" stroke-width="20" points="23845,30521 23811,30183 24734,30005 24725,30149 24615,30132 24598,30352 "/>
  <polygon fill="#7690C9" stroke="#2B2A29" stroke-width="20" points="29501,34348 29162,33925 29458,33772 29390,33688 29399,33459 29644,33256 29805,33180 30322,35203 29839,35186 29501,35246 29450,34687 29517,34492 "/>
  <polygon fill="#7690C9" stroke="#2B2A29" stroke-width="20" points="27824,36380 26910,35466 27570,34814 28332,35500 28324,35559 28408,35711 28391,35796 28205,36008 28036,36202 "/>
  <polygon fill="#7690C9" stroke="#2B2A29" stroke-width="20" points="25792,36279 25547,35813 25208,35296 25293,35263 25928,34619 26673,35364 "/>
  <polygon fill="#7690C9" stroke="#2B2A29" stroke-width="20" points="26673,36981 26114,36279 26647,35737 27189,36270 27350,36609 "/>
  <polygon fill="#7690C9" stroke="#2B2A29" stroke-width="20" points="24810,38725 24514,39047 24302,38861 24725,38421 24768,38463 24810,38429 24920,38556 "/>
  <polygon fill="#7690C9" stroke="#2B2A29" stroke-width="20" points="25106,37244 23963,38268 24336,38709 24454,38573 24361,38336 24531,38184 24691,38395 24912,38387 25318,38107 25199,37938 25335,37650 "/>
  <polygon fill="#7690C9" stroke="#2B2A29" stroke-width="20" points="23794,39005 23633,38497 23913,38302 24302,38768 24090,39056 24294,39250 24133,39445 24040,39471 23811,39098 "/>
  <polygon fill="#7690C9" stroke="#2B2A29" stroke-width="20" points="23244,40563 23650,40207 23862,40639 23786,40664 23684,40478 23684,40427 23345,40766 23024,41020 22964,40952 23049,40876 23083,40800 23235,40673 23286,40681 23294,40597 "/>
  <polygon fill="#B2B3B3" stroke="#2B2A29" stroke-width="20" points="20958,40055 20687,39708 21000,39657 21356,39640 21686,39581 21999,39445 22389,39200 22956,38827 23074,39140 23235,39064 23091,38742 23354,38624 23701,39530 23726,39657 23074,40055 22744,40258 22532,40368 21516,41045 21042,40309 "/>
  <polygon fill="#5CA595" stroke="#2B2A29" stroke-width="20" points="33903,15840 34013,15595 34132,15806 34276,15976 "/>
  <polygon fill="#7688A1" stroke="#2B2A29" stroke-width="20" points="19425,43137 19535,42984 19722,42925 19798,42823 19882,42832 19891,42874 19899,42950 19959,42984 19950,43043 19840,43060 19849,43111 19730,43204 19671,43213 19586,43272 19611,43314 19561,43374 19468,43314 19366,43408 19417,43475 19349,43501 19281,43611 19230,43577 19197,43602 19087,43501 19264,43340 19307,43382 19442,43221 "/>
  <polygon fill="#7688A1" stroke="#2B2A29" stroke-width="20" points="18214,45101 18206,44923 18333,44855 18358,44762 18562,44466 18917,44068 18976,44102 19044,44059 19036,43966 19264,43797 19374,43839 19442,43738 19510,43628 19688,43484 19849,43306 19899,43213 20119,43094 20213,43204 19849,43535 19789,43535 19738,43585 19722,43645 19264,44085 19120,44203 18706,44542 18680,44627 18494,44847 "/>
  <polygon fill="#7690C9" stroke="#2B2A29" stroke-width="20" points="14117,46599 14057,46261 15336,46176 15344,46532 15387,46574 15378,46633 14201,46625 "/>
  <polygon fill="#7690C9" stroke="#2B2A29" stroke-width="20" points="14184,48377 14201,47946 15404,47963 15310,48107 15251,48081 15150,48386 "/>
  <polygon fill="#7690C9" stroke="#2B2A29" stroke-width="20" points="13626,49504 13634,49343 14201,49343 14184,49673 13947,49681 13964,49766 14303,49766 14235,49834 13871,49842 13880,49910 13583,49918 13583,49597 "/>
  <polygon fill="#FFF383" stroke="#2B2A29" stroke-width="20" points="10340,50757 10315,50003 10535,49800 11280,49808 11263,50401 11272,50917 9748,51095 9468,51078 9494,50748 "/>
  <polygon fill="#7690C9" stroke="#2B2A29" stroke-width="20" points="9900,51679 9782,51129 11331,50977 11331,49800 12144,49749 12195,49885 12212,50316 12025,50274 11924,50384 11873,50596 11924,50782 12059,50824 12051,50951 12262,50943 12525,51205 12669,51536 12254,52044 12152,51840 12008,51857 11306,51544 11094,51629 10213,51730 10188,51637 "/>
  <polygon fill="#7690C9" stroke="#2B2A29" stroke-width="20" points="9333,53051 9409,52018 10207,52075 10188,53178 9748,53178 9748,53237 9519,53229 9511,53060 "/>
  <polygon fill="#7690C9" stroke="#2B2A29" stroke-width="20" points="13515,50714 13532,50384 13727,50393 13769,50443 13583,50723 "/>
  <polygon fill="#BBC274" stroke="#2B2A29" stroke-width="20" points="32015,34534 32125,34763 32252,34704 32142,34475 "/>
  <polygon fill="#7690C9" stroke="#2B2A29" stroke-width="20" points="32489,34763 32328,34416 32430,34374 32464,34577 32565,34814 32464,34873 32422,34805 "/>
  <polygon fill="#7690C9" stroke="#2B2A29" stroke-width="20" points="32083,33832 32083,33518 32142,33518 32159,33832 32244,34069 32184,34094 "/>
  <polygon fill="#7690C9" stroke="#2B2A29" stroke-width="20" points="32278,32672 31981,33459 32108,33459 32396,32740 "/>
  <polygon fill="#7690C9" stroke="#2B2A29" stroke-width="20" points="32379,32274 32379,32003 32438,32003 32430,32172 32515,32232 32489,32308 "/>
  <polygon fill="#7688A1" stroke="#2B2A29" stroke-width="20" points="33573,21199 33531,21106 33802,21064 33768,21191 "/>
 </g>
 <g id="ІН-2">
  <metadata id="CorelCorpID_16Corel-Layer"/>
  <polygon fill="#5B5B5B" stroke="#2B2A29" stroke-width="20" points="26834,2226 26723,2200 26783,1895 27088,1938 27054,2124 26867,2099 "/>
  <polygon fill="#5B5B5B" stroke="#2B2A29" stroke-width="20" points="17313,13567 17410,13427 17588,13486 17554,13563 18282,13808 18248,13910 18206,13901 18130,14087 17698,13944 17681,13986 17495,13935 17537,13766 17427,13740 17503,13622 "/>
  <polygon fill="#7690C9" stroke="#2B2A29" stroke-width="20" points="28637,4859 28010,4359 28442,3817 29077,4351 "/>
  <polygon fill="#5CA595" stroke="#2B2A29" stroke-width="20" points="24135,10273 24065,9947 24344,9922 24421,10227 "/>
 </g>
 <g id="ІН-1">
  <metadata id="CorelCorpID_17Corel-Layer"/>
  <polygon fill="#7688A1" stroke="#2B2A29" stroke-width="20" points="33184,12276 32828,12115 32921,11878 33057,11928 33133,11810 33361,11920 "/>
  <polygon fill="#7688A1" stroke="#2B2A29" stroke-width="20" points="17986,23985 17927,23342 18536,23291 18662,24273 18113,24349 18062,24036 "/>
 </g>
 <g id="Ж-5р">
  <metadata id="CorelCorpID_18Corel-Layer"/>
  <polygon fill="#FBD9CA" stroke="#2B2A29" stroke-width="20" points="12360,12963 14108,13452 14396,13630 14608,13927 14760,14629 12669,15087 "/>
  <polygon fill="#FBD9CA" stroke="#2B2A29" stroke-width="20" points="10332,15197 10137,12767 11670,12792 12186,12936 12499,15103 10772,15451 10451,15366 "/>
  <polygon fill="#FBD9CA" stroke="#2B2A29" stroke-width="20" points="12690,15270 14340,15052 14921,14985 15751,14951 15945,15027 16039,15171 16047,15281 15649,15366 15700,15840 15878,15823 16052,16728 14311,17000 13778,16881 13651,16839 13592,16492 13753,16441 13753,16263 13880,16246 13846,15891 13947,15518 13363,15578 13219,15992 13202,16534 13355,16932 12948,16983 "/>
 </g>
 <g id="Ж-5п">
  <metadata id="CorelCorpID_19Corel-Layer"/>
  <poligon fill="#FBD9CA" stroke="#2B2A29" stroke-width="20" points="21948 8584, 20729 7348, 22202 5926, 23405 7094, 21948 8584"/>
  <polygon fill="#FBD9CA" stroke="#2B2A29" stroke-width="20" points="22736,9067 22566,8254 22634,8195 22786,8313 22973,8305 23024,8262 23227,9338 22795,9422 22710,9363 22786,9304 22770,9134 "/>
  <polygon fill="#FBD9CA" stroke="#2B2A29" stroke-width="20" points="24412,7348 24793,6916 25580,7627 25191,8051 "/>
  <polygon fill="#FBD9CA" stroke="#2B2A29" stroke-width="20" points="24310,8855 24175,8305 24522,8237 24700,8245 24835,8313 25394,8787 25648,9016 25741,9143 25775,9278 25792,9482 25809,10921 24395,10963 24378,10531 24446,10506 24429,10286 24141,10303 24135,10273 24421,10227 24344,9922 24065,9947 23980,9956 23853,9278 23802,8991 23921,8991 23907,8941 "/>
  <polygon fill="#FBD9CA" stroke="#2B2A29" stroke-width="20" points="22786,13613 22202,13207 23108,12216 23328,12013 23455,11979 23692,12191 23752,12716 23565,12775 23574,12817 23371,12801 23303,12834 23345,12944 23557,12911 23692,12919 23701,13080 23608,13122 23608,13224 23455,13224 23455,13546 23379,13732 23252,13639 23210,13656 23159,13622 22964,13850 22770,13690 "/>
  <polygon fill="#FBD9CA" stroke="#2B2A29" stroke-width="20" points="17512,12352 17512,12225 18308,11143 18748,11531 18807,11674 18731,12420 18714,12580 17690,12352 "/>
  <polygon fill="#FBD9CA" stroke="#2B2A29" stroke-width="20" points="16259,11632 16428,11480 16606,11658 17520,10743 17613,10599 18164,11048 17647,11785 17393,11801 17105,12030 16487,12022 "/>
  <polygon fill="#FBD9CA" stroke="#2B2A29" stroke-width="20" points="16555,12758 16547,12301 17334,12343 17300,13385 16792,14096 16538,13960 16293,14240 16233,14206 16487,13055 "/>
  <polygon fill="#FBD9CA" stroke="#2B2A29" stroke-width="20" points="13109,18278 12965,17178 13846,17042 14269,17203 15454,16958 15624,17872 "/>
  <polygon fill="#FBD9CA" stroke="#2B2A29" stroke-width="20" points="13245,19176 13160,18456 15717,17991 15420,18405 15336,18355 15107,18609 15420,18812 15539,18634 15641,18676 15996,18168 16335,18422 16013,18863 15827,18964 13422,19269 "/>
  <polygon fill="#FBD9CA" stroke="#2B2A29" stroke-width="20" points="16623,19210 16352,19066 16513,18558 17055,18956 16894,19769 16563,19752 16504,19608 16496,19515 16631,19388 "/>
  <polygon fill="#FBD9CA" stroke="#2B2A29" stroke-width="20" points="33277,14274 33471,13935 33912,14367 34183,14172 34233,14350 34233,14545 34183,14714 34022,15078 33065,14722 "/>
  <polygon fill="#FCD5A6" stroke="#2B2A29" stroke-width="20" points="30711,21868 30635,21623 31363,21479 31414,21724 "/>
  <polygon fill="#FCD5A6" stroke="#2B2A29" stroke-width="20" points="30796,26982 30728,26398 30948,26356 30974,26296 30906,26042 31075,26093 31482,26076 31346,26474 31067,26940 "/>
  <polygon fill="#FCD5A6" stroke="#2B2A29" stroke-width="20" points="24412,28134 24192,28083 24370,27372 25961,27787 25614,28819 24700,28540 24751,28405 24353,28303 "/>
  <polygon fill="#FCD5A6" stroke="#2B2A29" stroke-width="20" points="24776,29742 24945,29260 25047,29268 25276,29429 24996,29649 "/>
  <polygon fill="#FBD9CA" stroke="#2B2A29" stroke-width="20" points="31346,27820 31516,27998 31262,28168 31177,27863 "/>
  <polygon fill="#F08365" stroke="#2B2A29" stroke-width="20" points="13634,7881 13549,7653 13744,7636 14100,8169 "/>
 </g>
 <g id="Ж-5">
  <metadata id="CorelCorpID_20Corel-Layer"/>
  <polygon fill="#FCD5A6" stroke="#2B2A29" stroke-width="20" points="20865,9609 20509,9233 19657,10015 18875,9216 20636,7492 21804,8677 "/>
  <polygon fill="#FCD5A6" stroke="#2B2A29" stroke-width="20" points="27790,3132 28002,1912 29975,2260 29958,2505 30119,2514 30186,2370 31219,1802 31304,1845 31406,1811 31533,1870 31643,1853 31803,2310 31736,2446 31338,2336 30745,2505 30923,2962 30821,2979 30931,3352 31067,3326 31237,3865 30525,4249 30627,4325 30500,4435 30296,4647 29788,4215 30059,3919 29712,3623 29644,3614 29712,3470 29695,3352 29509,3301 29340,3335 29331,3436 29060,3724 28984,3724 28755,3987 "/>
  <polygon fill="#FCD5A6" stroke="#2B2A29" stroke-width="20" points="24353,5028 23736,4284 24539,4095 24683,4901 24675,4994 "/>
  <polygon fill="#FCD5A6" stroke="#2B2A29" stroke-width="20" points="25411,18930 25335,18549 25877,18490 25945,18837 "/>
  <polygon fill="#FCD5A6" stroke="#2B2A29" stroke-width="20" points="29390,21834 29831,21758 29890,22080 29856,22101 29467,22156 "/>
 </g>
 <g id="Ж-4п">
  <metadata id="CorelCorpID_21Corel-Layer"/>
  <polygon fill="#F6B096" stroke="#2B2A29" stroke-width="20" points="19925,20539 19823,19955 20145,19896 20204,20302 20230,20505 "/>
  <polygon fill="#FFF383" stroke="#2B2A29" stroke-width="20" points="20162,19802 20111,19464 20119,19413 20280,19362 20501,19360 20772,19324 20797,19506 20475,19548 20467,19472 20416,19481 20467,19760 "/>
  <polygon fill="#FFF383" stroke="#2B2A29" stroke-width="20" points="18909,18837 18875,18634 19180,18592 19205,18786 "/>
  <polygon fill="#FFF383" stroke="#2B2A29" stroke-width="20" points="18807,20564 18562,19024 19874,18820 19899,19100 20001,19210 20052,19472 20111,19828 19730,19887 19840,20412 "/>
  <polygon fill="#FFF383" stroke="#2B2A29" stroke-width="20" points="9959,9642 9909,8271 11416,8017 11848,10802 11018,10794 10738,10650 10434,10303 10298,9744 10408,9626 "/>
  <polygon fill="#FFF383" stroke="#2B2A29" stroke-width="20" points="11949,10726 11602,7975 12330,7881 13414,10464 13439,10498 13287,10633 13084,10515 12906,10464 12737,10472 12660,10506 12499,10057 12313,10167 12144,10311 12042,10455 12008,10557 "/>
  <polygon fill="#FFF383" stroke="#2B2A29" stroke-width="20" points="10823,12496 10840,11598 11966,11590 12161,12851 11670,12707 10628,12707 10637,12504 "/>
  <polygon fill="#FFF383" stroke="#2B2A29" stroke-width="20" points="12322,12894 12118,11649 12347,11861 12601,11979 12931,12047 13137,11997 13278,12580 14294,12504 15649,11226 16157,11844 16301,12259 16335,12648 16013,14384 16013,14468 15776,14435 14836,14604 14709,14011 14523,13656 14320,13478 14134,13402 "/>
 </g>
 <g id="Ж-4">
  <metadata id="CorelCorpID_22Corel-Layer"/>
  <polygon fill="#FFF383" stroke="#2B2A29" stroke-width="20" points="24816,4250 24738,4058 25358,3958 25186,5052 25146,5140 25027,5237 24992,5184 24988,5052 24886,4444 "/>
  <polygon fill="#FFF383" stroke="#2B2A29" stroke-width="20" points="25215,5683 25817,2168 27413,3412 27197,3681 27091,3597 27102,3562 27054,3524 27095,3465 26507,2973 26458,3044 26436,3022 26134,3394 26156,3414 25867,3771 26150,3992 26134,4025 26597,4382 25329,5837 25210,5736 "/>
  <poligon fill="#FFF383" stroke="#2B2A29" stroke-width="20" points="21605 3200, 22088 2750, 23314 4113, 23120 4316, 23208 4417, 23336 4311, 23374 4347, 23446 4283, 23508 4367, 22697 5160, 22150 5698, 20602 4155, 21175 3615, 21422 3884, 21852 3460, 21605 3200"/>
  <polygon fill="#FFF383" stroke="#2B2A29" stroke-width="20" points="22271,5769 23595,4482 23735,4667 23607,4807 23931,5137 24050,5026 24651,5693 24666,5770 24410,6038 23997,5650 23624,6040 23813,6264 23735,6364 23917,6554 23481,7011 "/>
  <poligon fill="#FFF383" stroke="#2B2A29" stroke-width="20" points="27502 3352, 26359 2454, 26495 2310, 26613 1675, 27875 1887, 27655 3115, 27638 3199, 27502 3352"/>
  <polygon fill="#FFF383" stroke="#2B2A29" stroke-width="20" points="30000,5011 29441,4546 29746,4173 29788,4215 30296,4647 "/>
  <polygon fill="#FFF383" stroke="#2B2A29" stroke-width="20" points="30644,5570 30119,5130 30677,4469 32252,3631 32506,4427 31363,4825 31287,4859 "/>
  <polygon fill="#FFF383" stroke="#2B2A29" stroke-width="20" points="32532,4486 32752,5121 32413,5223 32193,4605 "/>
  <polygon fill="#FFF383" stroke="#2B2A29" stroke-width="20" points="32413,5282 32735,6197 33082,6070 32777,5147 "/>
  <polygon fill="#FFF383" stroke="#2B2A29" stroke-width="20" points="33141,7390 32760,6239 33099,6137 33471,7238 "/>
  <polygon fill="#FFF383" stroke="#2B2A29" stroke-width="20" points="33404,8533 33556,8237 33692,8669 33116,8770 33065,8601 "/>
  <polygon fill="#FFF383" stroke="#2B2A29" stroke-width="20" points="34200,10523 33996,9719 34191,9693 34403,10599 34166,10667 34225,10853 34420,10802 34411,10896 34394,10972 34157,11056 33768,10879 33717,10642 "/>
  <polygon fill="#FFF383" stroke="#2B2A29" stroke-width="20" points="34462,14629 34445,14418 34894,14663 34826,14765 34758,14816 34708,14833 34657,14951 34394,14790 "/>
  <polygon fill="#FFF383" stroke="#2B2A29" stroke-width="20" points="23354,23071 23303,22630 23743,22580 23828,23147 23066,23265 23066,23113 "/>
  <polygon fill="#FFF383" stroke="#2B2A29" stroke-width="20" points="24107,24214 23879,22580 24852,22444 25106,22461 25453,22537 25792,22690 25894,22850 25953,23045 25657,23071 25682,23274 25978,23265 26334,24857 26393,25196 26393,25670 26368,26152 26317,26483 26012,27372 25978,27617 24302,27177 24421,26644 24387,25958 24260,25213 "/>
  <polygon fill="#FFF383" stroke="#2B2A29" stroke-width="20" points="23227,25534 23244,25077 24124,25009 24209,25526 24277,25924 24302,26559 24285,26711 24192,27152 23108,26898 22736,26838 22507,26821 22761,25526 "/>
  <polygon fill="#FFF383" stroke="#2B2A29" stroke-width="20" points="20890,28532 20695,27245 22194,26957 22329,26991 22016,28735 "/>
  <poligon fill="#FFF383" stroke="#2B2A29" stroke-width="20" points="18621 28930, 18943 27558, 20585 27262, 20822 28625, 21999 28853, 21847 29649, 21762 30420, 19154 31190, 18697 29581, 18638 29158, 18621 28930"/>
  <polygon fill="#FFF383" stroke="#2B2A29" stroke-width="20" points="19561,25602 19442,25594 18976,27397 19027,27414 20517,27126 20467,26686 20280,26703 20246,26508 20348,26500 20357,26584 20517,26559 20500,26390 20179,26212 20111,26246 20162,26525 20077,26533 19992,26025 19908,26009 19916,25839 19772,25755 19772,25721 "/>
  <polygon fill="#FFF383" stroke="#2B2A29" stroke-width="20" points="21627,25450 21669,25145 22609,25111 22609,25424 22380,26813 22058,26830 20636,27109 20560,26720 20814,26169 21254,25932 21491,25780 "/>
  <poligon fill="#FFF383" stroke="#2B2A29" stroke-width="20" points="19476 24544, 19256 23172, 22194 22783, 22422 22977, 22609 24993, 21584 25060, 21516 25458, 21381 25729, 20780 26119, 20348 26102, 20323 26025, 20348 25873, 20153 25721, 20052 25560, 19984 25340, 19899 25340, 19891 25230, 19611 25213, 19595 25314, 19518 25204, 19544 24993, 19476 24544"/>
  <polygon fill="#FFF383" stroke="#2B2A29" stroke-width="20" points="23134,18338 24861,18067 24903,18262 25022,18236 25064,18465 24954,18490 25056,19015 25191,19007 25360,19887 25293,19913 25259,20302 25293,20327 25352,20319 25403,20454 25479,20429 25555,20802 25479,20818 25513,21013 25513,21259 25420,21276 25428,21369 25631,21360 25640,21767 22465,22232 22135,20200 21855,18524 22160,18473 22168,18761 22245,18744 22270,18778 22295,19100 22355,19447 22482,19430 22507,19675 22456,19684 22465,19760 22294,19784 22304,19870 22461,19858 22465,19963 22516,19955 22549,20116 22863,20090 22846,19989 23218,19938 23506,19887 23565,19887 23574,19989 23963,19989 24124,19913 24243,19904 24285,19845 24437,19819 24336,19235 23701,19286 23633,19235 23548,18566 23362,18600 23337,18507 23176,18532 "/>
  <poligon fill="#FFF383" stroke="#2B2A29" stroke-width="20" points="17334 20683, 17757 19125, 18426 19040, 18468 19540, 18358 19557, 18333 19633, 18418 19642, 18418 19574, 18485 19574, 18528 19938, 18401 19921, 18418 20040, 18579 20065, 19053 22707, 17207 22969, 17046 22918, 17029 22842, 16801 22563, 17334 20683"/>
  <poligon fill="#FFF383" stroke="#2B2A29" stroke-width="20" points="19899 19100, 19874 18820, 21694 18541, 22321 22207, 19120 22630, 18807 20564, 19840 20412, 19857 20531, 19899 20564, 20289 20514, 20187 19896, 20848 19819, 20907 20251, 20898 20336, 20941 20531, 21042 20522, 20881 19709, 20526 19760, 20475 19548, 20797 19506, 20771 19320, 20433 19371, 20280 19362, 20119 19413, 20111 19464, 20052 19472, 20001 19210, 19899 19100"/>
  <polygon fill="#FFF383" stroke="#2B2A29" stroke-width="20" points="24183,18041 24141,17770 24454,17728 24522,17787 24531,17991 "/>
  <polygon fill="#FFF383" stroke="#2B2A29" stroke-width="20" points="24598,17135 24581,16898 24725,16881 24954,17923 24878,17931 24844,17660 24700,17550 "/>
  <polygon fill="#FFF383" stroke="#2B2A29" stroke-width="20" points="22067,18050 21991,17618 22634,17533 22736,18253 22499,18287 22422,17847 22126,17906 22143,18033 "/>
  <polygon fill="#FFF383" stroke="#2B2A29" stroke-width="20" points="24624,15383 24624,15332 27401,15002 27536,15891 26910,15730 26834,16009 26867,16043 26732,16484 27062,16577 27096,16780 27054,16848 27071,16958 27384,16881 27443,16839 27426,16763 27485,16907 27545,17279 27790,17254 27807,17389 25157,17804 25123,17415 25081,17339 25039,17093 25149,17042 25157,16992 25005,16975 24920,16577 25005,16594 25030,16475 24903,16458 25039,16069 24996,16052 24903,16331 24861,16314 24725,15713 24785,15679 24759,15628 24708,15620 24708,15544 24793,15468 24759,15374 "/>
  <polygon fill="#FFF383" stroke="#2B2A29" stroke-width="20" points="27587,16170 27587,15992 28510,15882 28603,16373 28468,16390 28408,16340 28061,16263 27672,16213 "/>
  <polygon fill="#FFF383" stroke="#2B2A29" stroke-width="20" points="17698,18744 17884,18016 18062,18075 18130,18075 18096,18346 18231,18380 18265,18710 18358,18676 18401,18753 18384,18913 17800,19015 "/>
  <poligon fill="#FFF383" stroke="#2B2A29" stroke-width="20" points="18799 15146, 18866 15146, 21220 14917, 21296 14951, 21271 15103, 21262 15645, 21347 16331, 21127 16357, 21144 16424, 21212 16458, 21229 16390, 21288 16382, 21347 16873, 21440 16831, 21483 17127, 21364 17144, 21381 17313, 21423 17474, 21237 17500, 21212 17415, 20839 17474, 20763 17085, 20678 17085, 20661 16949, 19239 17169, 18621 17288, 18621 17381, 18375 17432, 18375 17516, 18333 17542, 18384 17804, 18316 17855, 18164 17838, 18130 18075, 18062 18075, 18198 17559, 18104 17525, 18274 16814, 18223 16805, 18409 16153, 18477 15992, 18392 16399, 18452 16390, 18460 16314, 18773 16187, 18765 16094, 18714 16153, 18663 16103, 18672 16035, 18528 16069, 18570 15959, 18528 15916, 18722 15442, 18765 15239, 18799 15146"/>
  <polygon fill="#FFF383" stroke="#2B2A29" stroke-width="20" points="15945,15027 15971,14587 16259,14680 16470,14841 16436,14900 16724,15120 16674,15171 16750,15230 16885,15154 17148,15247 17326,15276 17303,15409 17927,15366 17952,15319 18045,15324 18087,15205 18181,15214 18248,15307 18206,15755 18196,15862 18049,15846 18113,15637 18062,15403 17292,15451 17520,15637 17546,15755 17723,15857 17898,16192 17817,16492 17952,16526 17947,16585 18045,16594 18198,16086 18231,15865 18240,16103 17986,17000 17842,16975 17859,16822 17571,16848 17444,17398 17850,17364 17486,18609 17182,18549 17105,18786 15751,17770 15615,16873 16064,16788 15878,15823 15700,15840 15649,15366 16047,15281 16039,15171 "/>
  <poligon fill="#FFF383" stroke="#2B2A29" stroke-width="20" points="19535 11742, 19815 11547, 21965 13182, 21847 13359, 21567 13884, 21423 14299, 21322 14748, 20458 14824, 20526 14579, 20183 14626, 20179 14782, 20221 14858, 18934 14985, 18875 14917, 18960 14062, 19374 12513, 19535 11742"/>
  <polygon fill="#FFF383" stroke="#2B2A29" stroke-width="20" points="21186,12445 20721,12098 21516,12005 "/>
  <polygon fill="#FFF383" stroke="#2B2A29" stroke-width="20" points="21339,11378 21770,10879 22270,11387 22871,10769 22880,10565 23142,10277 23040,9803 22930,9854 22846,9803 22922,9719 23294,9651 23701,11632 23489,11734 23286,11776 23040,12013 22837,11793 21948,11937 "/>
  <polygon fill="#FCD5A6" stroke="#2B2A29" stroke-width="20" points="18104,9990 18494,9617 18824,9930 18858,9981 18892,9930 18943,9990 18849,10083 18934,10193 18909,10235 18968,10294 18926,10328 18773,10481 "/>
  <polygon fill="#FFF383" stroke="#2B2A29" stroke-width="20" points="21821,14706 21483,14722 21516,14587 21652,14604 21762,14164 21821,14164 21796,14240 21872,14257 21940,14037 21881,14011 21813,14020 22033,13563 22050,13427 21991,13419 22084,13283 22219,13402 22126,13452 22126,13529 22262,13537 22304,13588 22380,13512 22659,13740 22837,13910 23650,14511 23269,14553 22719,14621 22863,14536 23040,14274 22736,14079 22685,14079 22583,14206 22219,13927 22185,14020 22058,14079 21982,14164 22016,14198 21923,14299 21830,14629 "/>
  <polygon fill="#FFF383" stroke="#2B2A29" stroke-width="20" points="22058,15019 22067,14833 22939,14756 22905,15273 23066,15383 23261,16348 23366,16352 23362,16407 22228,16594 22177,16119 22126,15442 22253,15434 22262,15070 22168,15070 "/>
  <polygon fill="#FFF383" stroke="#2B2A29" stroke-width="20" points="29958,2505 29975,2260 30127,2243 31541,1523 31643,1853 31533,1870 31406,1811 31304,1845 31219,1802 30186,2370 30119,2514 "/>
  <polygon fill="#FCD5A6" stroke="#2B2A29" stroke-width="20" points="21914,30157 21974,29776 22304,29827 22643,30166 22321,30267 "/>
  <polygon fill="#FCD5A6" stroke="#2B2A29" stroke-width="20" points="25547,30657 25691,30394 25919,30098 26139,30301 25970,30530 25851,30640 25741,30750 25640,30750 "/>
 </g>
 <g id="Ж-3">
  <metadata id="CorelCorpID_23Corel-Layer"/>
  <polygon fill="#FFF383" stroke="#2B2A29" stroke-width="20" points="22801,3203 22281,2617 22677,2237 22827,2132 23753,1267 23895,1232 24027,1250 24565,4089 23736,4284 23515,3984 22970,3374 23193,3152 23030,2978 "/>
  <polygon fill="#FFF7B2" stroke="#2B2A29" stroke-width="20" points="24483,2437 24265,1326 24820,1426 25075,1426 25767,1526 25358,3958 24738,4058 24574,3011 "/>
  <polygon fill="#FCD5A6" stroke="#2B2A29" stroke-width="20" points="24463,6620 24327,6544 24903,5951 25005,6070 "/>
  <polygon fill="#FCD5A6" stroke="#2B2A29" stroke-width="20" points="33692,8669 33556,8237 33615,8102 33768,8102 34047,9058 33759,9143 33675,9084 33604,8684 "/>
  <polygon fill="#FCD5A6" stroke="#2B2A29" stroke-width="20" points="33502,20141 33429,19836 33573,19786 33683,20023 33573,20141 "/>
  <polygon fill="#FCD5A6" stroke="#2B2A29" stroke-width="20" points="22846,27270 22922,26999 24370,27372 24205,28086 24412,28134 24353,28303 24751,28405 24709,28543 25614,28819 25479,29226 25377,29344 25072,29175 24090,28913 24006,28955 23557,28828 23523,28980 23405,29006 22727,28853 22549,28803 22405,28735 22329,28608 22236,28599 22422,27549 22499,27566 22551,27225 "/>
  <polygon fill="#FCD5A6" stroke="#2B2A29" stroke-width="20" points="22304,29827 21974,29776 22041,29463 22090,29475 22228,28684 22304,28709 22439,28819 22439,28887 22668,28921 22668,28989 23650,29158 23701,28963 24031,29040 24065,28997 24912,29209 24945,29260 24776,29742 24277,29861 22643,30166 "/>
 </g>
 <g id="Ж-2">
  <metadata id="CorelCorpID_24Corel-Layer"/>
  <polygon fill="#FCD5A6" stroke="#2B2A29" stroke-width="20" points="21364,32426 21271,31207 21720,31072 22101,30978 22295,32265 "/>
 </g>
 <g id="Ж-1п">
  <metadata id="CorelCorpID_25Corel-Layer"/>
  <polygon fill="#FCD5A6" stroke="#2B2A29" stroke-width="20" points="31990,10108 32244,9566 32786,9803 33209,8965 33294,9007 33505,9990 33184,9990 32963,10523 32667,11251 32159,11006 32461,10309 "/>
  <polygon fill="#FCD5A6" stroke="#2B2A29" stroke-width="20" points="33514,11801 33912,11996 33988,11835 33802,11742 33903,11522 33675,11412 "/>
  <polygon fill="#FCD5A6" stroke="#2B2A29" stroke-width="20" points="30423,13359 30347,12936 30906,12860 31025,13283 "/>
  <polygon fill="#FCD5A6" stroke="#2B2A29" stroke-width="20" points="31236,13783 31143,13368 32015,12470 32261,12589 31744,13850 31583,14130 "/>
  <polygon fill="#FCD5A6" stroke="#2B2A29" stroke-width="20" points="30787,14452 30720,13944 31211,13876 31507,14189 31507,14375 "/>
  <polygon fill="#FCD5A6" stroke="#2B2A29" stroke-width="20" points="32963,17347 32913,16831 33607,16754 33632,17195 33311,17322 "/>
  <polygon fill="#FCD5A6" stroke="#2B2A29" stroke-width="20" points="34860,17686 33683,17872 33666,18439 33226,18516 33319,19176 34733,18913 34851,18405 "/>
  <polygon fill="#FCD5A6" stroke="#2B2A29" stroke-width="20" points="32582,19955 33429,19836 33502,20141 33370,20141 33395,20310 32684,20437 "/>
  <polygon fill="#FCD5A6" stroke="#2B2A29" stroke-width="20" points="33294,20912 33260,20666 33454,20632 33480,20691 34047,20615 33937,20827 "/>
  <polygon fill="#FCD5A6" stroke="#2B2A29" stroke-width="20" points="30296,21445 29611,21572 29509,21089 30229,20954 "/>
  <polygon fill="#FCD5A6" stroke="#2B2A29" stroke-width="20" points="30779,25475 30813,24942 31228,24942 31185,25255 31719,25323 31643,25704 31516,26000 31321,26051 31084,26034 30881,25958 "/>
  <polygon fill="#FCD5A6" stroke="#2B2A29" stroke-width="20" points="34733,18913 34000,19049 34056,19608 34462,19523 "/>
  <polygon fill="#FCD5A6" stroke="#2B2A29" stroke-width="20" points="31262,23748 31380,23189 32438,23604 32091,24112 31693,23833 "/>
  <polygon fill="#FCD5A6" stroke="#2B2A29" stroke-width="20" points="34200,15230 34394,14790 34657,14951 34708,14833 34826,14765 34894,14663 35055,14756 35063,15332 35351,15061 35427,14951 36613,15561 36486,15764 36452,16128 36426,16331 36350,16602 36223,16678 36096,17068 36028,17373 35791,17660 35207,18465 35072,18465 35089,17906 35097,17279 35122,16873 35089,16619 34995,16373 34860,16153 34597,15933 34369,15781 34233,15510 "/>
  <polygon fill="#FCD5A6" stroke="#2B2A29" stroke-width="20" points="29797,28227 29653,27973 29992,27812 29975,27736 30762,27507 30864,27871 30914,28159 30542,28261 30508,28151 30313,28210 30390,28481 30322,28498 30330,28608 30550,28591 30542,28642 30618,28633 30660,29048 30745,29057 30728,29175 30974,29175 30906,29615 30466,28819 30356,28676 30178,28540 30000,28422 "/>
  <polygon fill="#FCD5A6" stroke="#2B2A29" stroke-width="20" points="23802,37726 23904,37997 24564,37447 24412,37354 24082,37481 "/>
 </g>
 <g id="Ж-1">
  <metadata id="CorelCorpID_26Corel-Layer"/>
  <polygon fill="#FCD5A6" stroke="#2B2A29" stroke-width="20" points="20966,19294 20915,18880 21051,18854 21076,18939 21406,18871 21483,19303 21246,19328 21262,19362 21178,19371 21161,19252 "/>
  <polygon fill="#FCD5A6" stroke="#2B2A29" stroke-width="20" points="21068,19887 21254,19828 21246,19743 21449,19726 21474,19853 21576,19828 21652,20294 21178,20548 "/>
  <polygon fill="#FCD5A6" stroke="#2B2A29" stroke-width="20" points="19679,11277 19688,11166 21948,8821 22050,8779 22710,9363 22795,9422 23227,9338 23294,9651 22922,9719 21754,10898 21339,11378 20670,12047 19882,11446 "/>
  <polygon fill="#FCD5A6" stroke="#2B2A29" stroke-width="20" points="25005,6070 24903,5951 24979,5866 25081,5875 25411,6163 24806,6901 24463,6620 "/>
  <polygon fill="#FCD5A6" stroke="#2B2A29" stroke-width="20" points="23701,7196 24294,6578 24590,6815 24531,6874 24591,6934 24167,7424 24082,7340 23963,7424 "/>
  <polygon fill="#FCD5A6" stroke="#2B2A29" stroke-width="20" points="23235,7661 23675,7238 24014,7577 23752,7915 23786,8068 24082,8008 24048,7831 23929,7754 24073,7602 24192,7526 24412,7348 25191,8051 25580,7627 26199,6840 26673,7221 26436,7534 26258,7763 26241,8000 26393,8237 29568,10887 29771,11056 29941,11243 29230,11641 28933,11700 23929,11988 23938,11759 23811,11006 24336,10963 25809,10921 25945,10896 25928,9041 24793,8110 24463,8110 23261,8389 23167,7881 "/>
  <polygon fill="#FCD5A6" stroke="#2B2A29" stroke-width="20" points="25453,5926 27739,3216 28442,3817 28010,4359 28637,4859 29077,4351 29924,5104 27638,7797 "/>
  <poligon fill="#FCD5A6" stroke="#2B2A29" stroke-width="20" points="30644 5570, 31338 4927, 32142 4630, 32413 5282, 32760 6239, 33141 7390, 32904 7543, 32455 8000, 31998 8830, 31202 10438, 31075 10701, 27756 7907, 30122 5133, 30644 5570"/>
  <polygon fill="#FCD5A6" stroke="#2B2A29" stroke-width="20" points="26444,7746 26808,7306 30457,10379 30373,10472 29746,10802 26503,8085 26410,7941 "/>
  <polygon fill="#FCD5A6" stroke="#2B2A29" stroke-width="20" points="30059,11133 29882,10887 30567,10498 30940,10794 30906,10862 30305,11310 "/>
  <polygon fill="#FCD5A6" stroke="#2B2A29" stroke-width="20" points="31033,11869 30432,11437 31033,10997 31084,10896 33133,11810 33057,11928 32921,11878 32828,12115 33184,12276 33361,11920 34030,12216 33734,12674 33598,13055 31304,11979 "/>
  <poligon fill="#FCD5A6" stroke="#2B2A29" stroke-width="20" points="32887 7771, 33048 7610, 33641 8051, 33404 8533, 33065 8601, 33116 8770, 33604 8684, 33675 9084, 33759 9143, 33852 9116, 33929 9524, 33996 9524, 34059 9711, 33998 9726, 34194 10524, 33717 10642, 33768 10879, 34157 11056, 34394 10972, 34191 11268, 34123 11446, 34064 12047, 33920 11979, 33988 11835, 33802 11742, 33903 11522, 33675 11412, 33514 11801, 31202 10777, 31456 10286, 31685 9778, 32041 9067, 32582 8135, 32887 7771"/>
  <polygon fill="#FCD5A6" stroke="#2B2A29" stroke-width="20" points="23692,12191 24200,14468 23786,14511 23616,14341 23625,14198 23574,14198 23557,13969 23489,13960 23464,13918 23506,13774 23455,13546 23455,13224 23608,13224 23608,13122 23701,13080 23692,12919 23557,12911 23345,12944 23303,12834 23371,12801 23574,12817 23565,12775 23752,12716 "/>
  <polygon fill="#FCD5A6" stroke="#2B2A29" stroke-width="20" points="23963,12352 23972,12157 27443,11962 27612,14138 24446,14443 23989,12504 24175,12436 24133,12309 "/>
  <polygon fill="#FCD5A6" stroke="#2B2A29" stroke-width="20" points="24624,15332 24463,14595 28256,14240 28510,15882 27587,15992 27536,15891 27401,15002 "/>
  <polygon fill="#FCD5A6" stroke="#2B2A29" stroke-width="20" points="28053,12098 28036,11928 28468,11903 28485,12140 28377,12147 28374,12106 "/>
  <poligon fill="#FCD5A6" stroke="#2B2A29" stroke-width="20" points="27748 14121, 27587 11945, 27706 11935, 27782 12792, 28417 12767, 29128 12767, 29077 11861, 29238 11818, 29399 11742, 30042 11353, 31126 12072, 32015 12470, 31143 13368, 31236 13783, 31583 14130, 31744 13850, 32041 13842, 32794 12843, 33607 13207, 33641 13393, 33725 13554, 33307 14222, 33065 14722, 34022 15078, 33971 15247, 34013 15595, 33903 15840, 34276 15976, 34606 16272, 34835 16509, 34877 16771, 34868 17516, 33649 17703, 33607 16754, 32913 16831, 32963 17347, 33040 17779, 28899 18389, 28739 17364, 28781 16975, 29094 16932, 29069 16754, 28789 16788, 28755 16331, 28374 14045, 27748 14121"/>
  <polygon fill="#FCD5A6" stroke="#2B2A29" stroke-width="20" points="25335,18549 25157,17804 27807,17389 28612,17288 28586,17466 28739,18414 25945,18837 25877,18490 "/>
  <poligon fill="#FCD5A6" stroke="#2B2A29" stroke-width="20" points="25826 21072, 25437 19066, 29898 18380, 29926 18567, 29297 18659, 29399 19455, 30025 19354, 30229 20954, 29512 21105, 29611 21572, 28739 21707, 28019 21902, 26673 22402, 26368 22215, 26148 21978, 26004 21699, 25826 21072"/>
  <polygon fill="#FCD5A6" stroke="#2B2A29" stroke-width="20" points="18384,18913 18907,18826 18880,18633 19180,18592 19205,18786 21686,18431 21533,17474 21423,17474 21237,17500 21212,17415 20839,17474 20763,17085 20678,17085 20661,16949 19239,17169 18621,17288 18621,17381 18375,17432 18375,17516 18333,17542 18384,17804 18316,17855 18164,17838 18096,18346 18231,18380 18265,18710 "/>
  <polygon fill="#FCD5A6" stroke="#2B2A29" stroke-width="20" points="21694,17491 21576,16780 24598,16272 24725,16881 24581,16898 24700,17550 24844,17660 24878,17931 24531,17991 24522,17787 24454,17728 24141,17770 24183,18041 23794,18092 23735,17779 23421,17830 23468,18147 22733,18234 22634,17533 21991,17618 21931,17449 "/>
  <polygon fill="#FCD5A6" stroke="#2B2A29" stroke-width="20" points="22880,19362 22719,18389 22939,18363 22973,18693 23159,18685 23074,18338 23134,18338 23172,18512 23172,18512 23176,18532 23337,18507 23362,18600 23548,18566 23633,19235 23701,19286 24336,19235 24434,19797 24431,19821 24285,19845 24243,19904 24124,19913 23963,19989 23574,19989 23565,19887 23506,19887 23218,19938 22846,19989 22863,20090 22549,20116 22516,19955 22465,19963 22461,19858 22304,19870 22294,19784 22465,19760 22456,19684 22507,19675 22482,19430 "/>
  <poligon fill="#FCD5A6" stroke="#2B2A29" stroke-width="20" points="30533 18295, 33683 17872, 33666 18439, 33226 18516, 33319 19176, 34000 19049, 34056 19608, 34462 19523, 34047 20615, 33480 20691, 33454 20632, 33260 20666, 33294 20912, 30423 21420, 30279 20107, 30610 20040, 31160 20387, 31236 20124, 31414 20099, 31397 19853, 30881 19718, 30237 19811, 30136 18880, 30576 18820, 30533 18295"/>
  <poligon fill="#FCD5A6" stroke="#2B2A29" stroke-width="20" points="27985 24485, 26690 22613, 28290 22080, 28866 21928, 29162 22732, 29949 22461, 29856 22101, 29890 22080, 30009 22114, 30110 22097, 30322 22148, 30440 22148, 30390 21665, 30635 21623, 30711 21868, 31414 21724, 31363 21479, 32786 21242, 32836 21521, 33234 21504, 33234 21403, 33311 21386, 33285 21166, 33531 21106, 33573 21199, 33768 21191, 33378 22207, 33251 22215, 33133 22173, 33116 21995, 32819 22038, 32786 21868, 32591 21885, 32523 21487, 32083 21589, 32027 22277, 31922 22817, 32760 23181, 32438 23604, 31380 23189, 31168 24298, 31160 24385, 31050 24374, 30972 24942, 30813 24942, 30779 25475, 30881 25958, 30483 26042, 30584 26398, 30721 26362, 30796 26982, 30796 27431, 30889 27482, 30851 27825, 30762 27507, 29975 27736, 29992 27812, 29653 27973, 29501 27482, 29348 26999, 29247 26703, 29069 26347, 28451 25238, 27985 24485"/>
  <polygon fill="#FCD5A6" stroke="#2B2A29" stroke-width="20" points="33446,23714 32819,23494 33463,22563 33454,22842 33412,23121 "/>
  <polygon fill="#FCD5A6" stroke="#2B2A29" stroke-width="20" points="32955,24671 32532,24451 32752,24078 33548,24485 33370,24866 33226,25424 33065,25382 33099,25230 32633,25043 32726,24806 32828,24849 "/>
  <polygon fill="#FCD5A6" stroke="#2B2A29" stroke-width="20" points="26664,24239 26215,22766 26368,22690 26656,22884 27748,24391 28408,25475 28802,26182 28628,26237 28569,26186 28561,26068 28493,26009 28434,26085 28234,25920 28349,25780 28279,25724 27596,26576 28129,26796 28247,26559 28400,26694 28722,26423 28653,26292 28823,26203 29026,26610 28925,26677 28984,26813 29111,26745 29280,27312 29433,27820 29543,28142 29746,28396 29915,28565 30186,28735 30390,28989 30610,29438 30440,29429 30517,30191 30694,30208 30432,30699 30136,31385 29992,31681 29179,32621 28425,32316 28129,32113 27833,31834 27020,31055 26588,30538 25547,29565 25691,29294 26046,28328 26207,27778 26249,27549 26444,27126 26630,26635 26766,26288 26588,26254 26707,25882 "/>
  <polygon fill="#FCD5A6" stroke="#2B2A29" stroke-width="20" points="31566,26542 31211,27253 31084,27600 31473,27753 31795,28091 31905,28396 32125,28481 32599,28523 32879,28455 33057,27897 33133,27651 33184,27084 33268,26923 33294,26703 33107,26694 33107,26644 32913,26644 32896,26745 32244,26728 32244,26584 31990,26550 "/>
  <polygon fill="#FCD5A6" stroke="#2B2A29" stroke-width="20" points="31202,28582 31160,28218 31262,28168 31566,27964 31719,28142 31736,28295 31812,28422 32176,28701 32278,28879 32083,29048 31761,29454 31719,29742 31795,29810 31617,30250 31397,30437 30881,30691 30686,30699 31033,30030 31160,29590 31219,29073 "/>
  <polygon fill="#FCD5A6" stroke="#2B2A29" stroke-width="20" points="30423,31520 30322,31503 30686,30699 30881,30691 31397,30437 31543,30313 31719,30437 32269,30657 32218,30809 31897,30750 31833,30818 31897,30860 31897,31232 31778,31495 31828,31507 31818,31572 32091,31613 31964,31986 31880,31969 31829,31910 31888,31766 31710,31698 31736,31563 31558,31503 31541,31630 31338,31571 31287,31571 31135,31529 31041,31495 31008,31385 30872,31368 30843,31343 30885,31283 30745,31207 30720,31245 30627,31203 30567,31309 30483,31309 "/>
  <poligon fill="#FCD5A6" stroke="#2B2A29" stroke-width="20" points="20119 31673, 20111 31173, 21042 30877, 22693 30403, 23811 30183, 23845 30521, 24598 30352, 24615 30132, 24725 30149, 24734 30005, 25047 29912, 25191 29835, 25428 29658, 25623 29835, 25403 30115, 25691 30394, 25547 30657, 25640 30750, 25741 30750, 25991 30501, 26139 30301, 26419 30572, 26622 30809, 25496 31918, 25216 32206, 23853 33442, 23692 33205, 22702 33984, 22761 34467, 21830 35364, 21339 35754, 20230 34509, 20399 34264, 20119 31673"/>
  <polygon fill="#FCD5A6" stroke="#2B2A29" stroke-width="20" points="18943,31876 18900,31622 19163,31453 19561,31326 19561,31630 19620,31605 19638,31739 "/>
  <polygon fill="#FCD5A6" stroke="#2B2A29" stroke-width="20" points="25699,34416 24497,33181 25216,32528 26800,31029 27104,31309 27562,31800 28010,32232 28391,32460 29077,32748 28476,33612 26673,35364 25928,34619 25293,35263 25218,35312 25157,35195 25072,35161 25005,35051 "/>
  <polygon fill="#FCD5A6" stroke="#2B2A29" stroke-width="20" points="25335,37650 25106,37244 26114,36279 26673,36981 26156,37345 25809,37650 25868,37811 25318,38107 25199,37938 "/>
  <polygon fill="#FCD5A6" stroke="#2B2A29" stroke-width="20" points="26647,35737 26910,35466 27824,36380 27646,36533 27350,36609 27189,36270 "/>
  <polygon fill="#FCD5A6" stroke="#2B2A29" stroke-width="20" points="23091,34721 22981,34509 24497,33181 24463,35212 24985,36398 24691,36558 24708,36600 24624,36634 24514,36414 24437,36465 24404,37269 24564,37447 24412,37354 24082,37481 23802,37726 23904,37997 23608,38260 23523,38251 23379,36973 23294,36262 24319,35762 24361,35618 24336,35457 24378,35288 23794,34653 23176,35009 "/>
  <polygon fill="#FCD5A6" stroke="#2B2A29" stroke-width="20" points="23913,38302 23963,38268 24336,38709 24454,38573 24361,38336 24531,38184 24691,38395 24725,38421 24302,38861 24514,39047 24336,39276 24294,39250 24090,39056 24302,38768 "/>
  <polygon fill="#FCD5A6" stroke="#2B2A29" stroke-width="20" points="23074,39140 22956,38827 23091,38742 23235,39064 "/>
  <polygon fill="#FCD5A6" stroke="#2B2A29" stroke-width="20" points="15454,45202 18799,41790 19475,42357 19408,42392 19374,42510 19061,42747 18985,42950 19095,43043 18943,43170 18782,43264 18714,43399 18604,43450 18477,43518 18358,43848 18299,43966 18223,43983 17952,44237 17800,44339 17723,44390 17503,44593 17309,44821 17148,45025 17080,45126 17055,45270 16953,45363 16851,45473 16741,45558 16369,46075 16267,46303 16267,46498 15937,47048 15471,47802 15488,46811 15420,46676 15327,45194 "/>
  <polygon fill="#FFF383" stroke="#2B2A29" stroke-width="20" points="13676,43543 13710,41807 13837,41740 15395,41511 15327,45194 15293,45279 14921,45321 15065,46134 15353,46100 15336,46176 14057,46261 14117,46599 14201,46625 15378,46633 15488,46811 15471,47802 15404,47963 14201,47946 14194,48119 13617,48115 13659,43865 14100,43839 14269,43873 14785,43882 14811,43382 14371,43391 14150,43365 14150,43424 13880,43450 13880,43543 "/>
  <polygon fill="#FFF383" stroke="#2B2A29" stroke-width="20" points="14201,49343 14184,49673 13947,49681 13964,49766 14303,49766 14362,49732 14498,49622 14658,49326 "/>
  <polygon fill="#FFF383" stroke="#2B2A29" stroke-width="20" points="13270,50139 13278,49690 13456,49690 13583,49597 13583,49918 13880,49910 13878,49842 14235,49834 14074,50037 13930,50266 13846,50376 13769,50443 13727,50393 13532,50384 13515,50714 13583,50723 13431,50689 13092,51383 12974,51315 12940,51392 12864,51366 12796,51417 12669,51536 12525,51205 12262,50943 12051,50951 12059,50824 11924,50782 11873,50596 11924,50384 12025,50274 12212,50316 12195,49885 12144,49749 12974,49698 12906,49791 12906,49944 13058,49944 13007,50249 13143,50232 13134,50291 13261,50266 13253,50393 13465,50409 13482,50155 "/>
  <poligon fill="#FFF383" stroke="#2B2A29" stroke-width="20" points="8808 46142, 10408 45863, 10518 45914, 10925 45846, 11043 46489, 11213 46464, 11551 46269, 11907 46015, 12008 46345, 12110 47353, 12059 47573, 12034 47802, 12068 47963, 12059 48208, 12093 48454, 12000 48471, 11966 48623, 11897 48629, 11890 49360, 11949 49351, 11941 49410, 12203 49444, 12203 49597, 11433 49639, 9612 49656, 9545 49622, 9189 49622, 8994 47531, 8808 46142"/>
  <polygon fill="#FFF383" stroke="#2B2A29" stroke-width="20" points="12152,45059 12356,45092 12474,45050 12838,45025 12838,44923 13202,44889 13202,44381 13304,44280 13524,44288 13473,49224 13126,49156 13143,49444 13219,49537 12652,49588 12483,49385 12474,49038 12406,48852 12296,47615 12288,47505 13439,47488 13405,47438 12254,47429 12212,46320 12127,45948 "/>
 </g>
 <g id="Г-7">
  <metadata id="CorelCorpID_27Corel-Layer"/>
  <polygon fill="#F08365" stroke="#2B2A29" stroke-width="20" points="13714,16860 13355,16932 13202,16534 13219,15992 13363,15578 13947,15518 13846,15891 13880,16246 13753,16263 13753,16441 13592,16492 13651,16839 "/>
  <polygon fill="#F08365" stroke="#2B2A29" stroke-width="20" points="22659,23900 22643,23663 23048,23619 23075,23869 "/>
  <polygon fill="#F08365" stroke="#2B2A29" stroke-width="20" points="31025,35220 30322,35203 29805,33112 30009,33087 30144,33806 30279,33781 30296,33823 30872,33629 31245,35203 "/>
 </g>
 <g id="Г-6">
  <metadata id="CorelCorpID_28Corel-Layer"/>
  <polygon fill="#F08365" stroke="#2B2A29" stroke-width="20" points="22970,3374 22801,3203 23036,2984 23193,3152 "/>
  <polygon fill="#F08365" stroke="#2B2A29" stroke-width="20" points="24793,6916 25411,6163 26199,6840 25580,7627 "/>
  <polygon fill="#F08365" stroke="#2B2A29" stroke-width="20" points="23455,9363 23362,8872 23853,8745 23921,8991 23802,8991 23853,9278 "/>
  <polygon fill="#F08365" stroke="#2B2A29" stroke-width="20" points="23667,10303 23616,10091 23997,10007 23980,9956 24065,9947 24141,10303 24133,10498 24031,10498 23997,10464 23997,10311 "/>
  <polygon fill="#F08365" stroke="#2B2A29" stroke-width="20" points="18164,11048 17579,10548 17910,10193 18477,10650 "/>
  <polygon fill="#F08365" stroke="#2B2A29" stroke-width="20" points="18748,11531 18308,11143 18595,10752 18968,11048 19129,11226 19230,11641 19036,12496 18731,12420 18807,11674 "/>
  <polygon fill="#F08365" stroke="#2B2A29" stroke-width="20" points="17429,13347 17512,12352 17690,12352 18951,12631 18909,13021 18739,13715 18401,13630 18377,13713 18003,13605 18011,13546 "/>
  <polygon fill="#F08365" stroke="#2B2A29" stroke-width="20" points="18773,13910 18502,13817 18443,14079 18663,14147 18748,14020 "/>
  <polygon fill="#F08365" stroke="#2B2A29" stroke-width="20" points="16394,14587 16199,14502 16563,14071 16834,14257 17313,13567 17503,13622 17427,13740 17537,13766 17495,13935 17681,13986 17698,13944 18130,14087 18206,13901 18248,13910 18290,13811 18443,13876 18384,14121 18460,14130 18460,14181 18418,14181 18130,15053 17334,15112 17148,15078 16936,14993 16767,14866 16563,14706 "/>
  <polygon fill="#F08365" stroke="#2B2A29" stroke-width="20" points="17876,15315 17884,15214 18087,15205 18045,15324 "/>
  <polygon fill="#F08683" stroke="#2B2A29" stroke-width="20" points="23066,15383 23108,15366 23489,15391 23684,15332 23819,15324 24260,15628 24454,15628 24581,16204 23498,16403 23438,16162 23231,16166 "/>
  <polygon fill="#F08683" stroke="#2B2A29" stroke-width="20" points="21779,18084 21694,17491 21931,17449 21991,17618 22067,18050 "/>
  <polygon fill="#F08683" stroke="#2B2A29" stroke-width="20" points="23468,18147 23421,17830 23735,17779 23794,18092 "/>
  <polygon fill="#F08683" stroke="#2B2A29" stroke-width="20" points="22541,18422 22718,18393 22685,18566 22617,18583 22566,18549 "/>
  <polygon fill="#F08683" stroke="#2B2A29" stroke-width="20" points="24903,18262 24861,18067 24979,18050 25022,18236 "/>
  <polygon fill="#F08365" stroke="#2B2A29" stroke-width="20" points="19403,22891 19180,22918 19171,22715 19383,22698 "/>
  <polygon fill="#F08365" stroke="#2B2A29" stroke-width="20" points="20297,22800 20255,22580 20898,22469 20924,22715 "/>
  <polygon fill="#F08365" stroke="#2B2A29" stroke-width="20" points="21881,22419 21923,22317 22329,22275 22160,22554 21085,22698 21051,22580 21279,22588 21288,22486 "/>
  <polygon fill="#F08365" stroke="#2B2A29" stroke-width="20" points="22465,22292 22465,22232 25313,21815 25326,22131 22930,22453 "/>
  <polygon fill="#F08365" stroke="#2B2A29" stroke-width="20" points="22609,23375 22566,22944 22947,22690 22998,22681 23007,23011 23057,23003 23073,23112 23057,23333 "/>
  <polygon fill="#F08365" stroke="#2B2A29" stroke-width="20" points="22744,24967 22659,23900 23075,23869 23091,24019 23151,24112 23205,24105 23269,24434 23252,24552 23582,24595 23591,24485 24014,24451 24065,24874 "/>
  <polygon fill="#F08365" stroke="#2B2A29" stroke-width="20" points="22761,25526 22770,25103 23244,25077 23227,25534 "/>
  <polygon fill="#F08365" stroke="#2B2A29" stroke-width="20" points="22456,27211 22490,26965 22922,26999 22846,27270 "/>
  <polygon fill="#F08365" stroke="#2B2A29" stroke-width="20" points="15437,28015 15353,27981 15370,27753 15581,26957 15835,27939 "/>
  <polygon fill="#F08683" stroke="#2B2A29" stroke-width="20" points="15725,23494 15717,23392 16115,22893 16174,22859 16343,22893 16326,22969 16276,23003 16140,23037 16030,23126 15954,23231 15920,23452 "/>
  <polygon fill="#B2B3B3" stroke="#2B2A29" stroke-width="20" points="16860,23604 16877,23502 16987,23477 17046,24070 16987,24290 16369,24171 16420,23993 16453,23943 16521,23926 16631,23900 16784,23773 "/>
  <polygon fill="#F08683" stroke="#2B2A29" stroke-width="20" points="32879,28455 32599,28523 32565,28735 32769,28794 "/>
  <polygon fill="#F08683" stroke="#2B2A29" stroke-width="20" points="13143,49444 13126,49156 13473,49224 13465,49470 13414,49520 13219,49537 "/>
  <polygon fill="#F08683" stroke="#2B2A29" stroke-width="20" points="13253,50393 13270,50139 13482,50155 13465,50409 "/>
  <polygon fill="#F08365" stroke="#2B2A29" stroke-width="20" points="12999,51527 12796,51417 12864,51366 12940,51392 12974,51315 13092,51383 "/>
  <polygon fill="#F08365" stroke="#2B2A29" stroke-width="20" points="35038,18634 35072,18465 35207,18465 35148,18634 "/>
 </g>
 <g id="Г-5">
  <metadata id="CorelCorpID_29Corel-Layer"/>
  <polygon fill="#F6B096" stroke="#2B2A29" stroke-width="20" points="27197,3681 27091,3597 27102,3562 27054,3524 27095,3465 26507,2973 26458,3044 26436,3022 26134,3394 26156,3414 25867,3771 26150,3992 26134,4025 26597,4382 "/>
  <polygon fill="#F6B096" stroke="#2B2A29" stroke-width="20" points="21422,3884 21175,3615 21609,3204 21852,3460 "/>
  <polygon fill="#F6B096" stroke="#2B2A29" stroke-width="20" points="22064,4525 22496,4093 22697,4303 22683,4419 22318,4782 "/>
  <polygon fill="#F6B096" stroke="#2B2A29" stroke-width="20" points="23208,4417 23120,4316 23314,4113 23446,4283 23374,4347 23336,4311 "/>
  <polygon fill="#F6B096" stroke="#2B2A29" stroke-width="20" points="23607,4807 23735,4667 23835,4790 24050,5026 23931,5137 "/>
  <polygon fill="#F08365" stroke="#2B2A29" stroke-width="20" points="18037,22740 18003,22605 18062,22605 18062,22554 18104,22554 18214,22698 18206,22783 18045,22808 "/>
  <polygon fill="#F08365" stroke="#2B2A29" stroke-width="20" points="29441,4546 28806,4012 29035,3775 29128,3767 29374,3479 29399,3352 29501,3360 29516,3303 29695,3352 29712,3470 29644,3614 29712,3623 30059,3919 29788,4215 29742,4178 "/>
  <polygon fill="#F08683" stroke="#2B2A29" stroke-width="20" points="22143,18033 22126,17906 22422,17847 22499,18287 22126,18348 22067,18050 "/>
  <polygon fill="#FCD5A6" stroke="#2B2A29" stroke-width="20" points="30110,24366 30059,24146 30432,23951 30677,24544 30356,24942 "/>
  <polygon fill="#FCD5A6" stroke="#2B2A29" stroke-width="20" points="30972,24942 31050,24374 31905,24459 31837,24645 31719,25323 31186,25251 31228,24942 "/>
  <polygon fill="#F08365" stroke="#2B2A29" stroke-width="20" points="30246,31724 30322,31503 30711,30919 31676,31275 31871,31656 31964,31986 31753,32706 31566,33121 31228,32960 30804,33087 30889,33358 31041,33485 30398,33629 30356,33485 30415,33290 30711,33222 30694,33129 30483,32892 30432,32663 30254,32519 30406,32528 30339,32316 30347,32079 30271,32020 30051,31986 "/>
  <polygon fill="#F08365" stroke="#2B2A29" stroke-width="20" points="19561,31630 19561,31326 20111,31173 20119,31673 19628,31740 19620,31605 "/>
  <polygon fill="#F08683" stroke="#2B2A29" stroke-width="20" points="34225,10853 34166,10667 34403,10599 34420,10802 "/>
  <polygon fill="#F08683" stroke="#2B2A29" stroke-width="20" points="10933,47599 10975,47345 11204,47387 11407,47404 11390,47582 11424,47632 11729,47641 11729,47776 11856,47709 11894,47709 11881,47929 11873,48123 11915,48234 11907,48361 11797,48352 11797,48445 11365,48386 11094,48377 10975,48471 10899,48513 10772,48504 10738,48462 10755,48276 10603,48259 10654,47726 10721,47641 10721,47582 "/>
 </g>
 <g id="Г-4п">
  <metadata id="CorelCorpID_30Corel-Layer"/>
  <polygon fill="#F08683" stroke="#2B2A29" stroke-width="20" points="14150,43424 14150,43365 14371,43391 14811,43382 14785,43882 14269,43873 14269,43780 14184,43780 14176,43657 "/>
 </g>
 <g id="Г-4">
  <metadata id="CorelCorpID_31Corel-Layer"/>
  <polygon fill="#F08365" stroke="#2B2A29" stroke-width="20" points="20060,30242 19916,28836 20611,28786 20653,29158 20619,29192 20805,30225 20094,30420 "/>
  <polygon fill="#F08365" stroke="#2B2A29" stroke-width="20" points="21931,8093 21669,7797 21897,7560 21957,7560 22033,7619 22092,7610 22262,7771 21974,8093 "/>
  <polygon fill="#F08365" stroke="#2B2A29" stroke-width="20" points="28781,16975 28789,16788 29069,16754 29094,16932 "/>
  <polygon fill="#F08683" stroke="#2B2A29" stroke-width="20" points="22973,18693 22939,18363 23074,18338 23159,18685 "/>
  <polygon fill="#F08365" stroke="#2B2A29" stroke-width="20" points="23007,23011 22998,22681 23303,22630 23354,23071 23073,23112 23057,23003 "/>
  <polygon fill="#F08365" stroke="#2B2A29" stroke-width="20" points="15827,11166 15717,11039 15988,10777 16081,10870 "/>
 </g>
 <g id="Г-3">
  <metadata id="CorelCorpID_32Corel-Layer"/>
  <polygon fill="#F08365" stroke="#2B2A29" stroke-width="20" points="21373,13723 20949,13520 21152,13063 21356,13105 21533,13241 21508,13410 "/>
  <polygon fill="#F08365" stroke="#2B2A29" stroke-width="20" points="29890,22080 29831,21758 30390,21665 30440,22148 30322,22148 30110,22097 30009,22114 "/>
  <polygon fill="#F08365" stroke="#2B2A29" stroke-width="20" points="29162,22732 28866,21928 29390,21834 29467,22156 29856,22101 29949,22461 "/>
  <polygon fill="#F08365" stroke="#2B2A29" stroke-width="20" points="32836,21521 32786,21242 33285,21166 33311,21386 33234,21403 33234,21504 "/>
  <polygon fill="#F08365" stroke="#2B2A29" stroke-width="20" points="21525,12699 21186,12445 21516,12005 21948,11937 22075,12064 21813,12326 21858,12381 21770,12487 21728,12462 "/>
  <polygon fill="#F08365" stroke="#2B2A29" stroke-width="20" points="22719,14621 21821,14706 21830,14629 21923,14299 22016,14198 21982,14164 22058,14079 22185,14020 22219,13927 22583,14206 22685,14079 22736,14079 23040,14274 22863,14536 "/>
  <polygon fill="#BBC274" stroke="#2B2A29" stroke-width="20" points="26834,16009 26910,15730 27536,15891 27587,15992 27587,16170 27672,16213 27646,16242 27574,16242 27570,16200 27469,16187 27477,16263 27350,16297 27358,16179 27096,16111 27088,16213 26839,16136 26867,16043 "/>
  <polygon fill="#F08365" stroke="#2B2A29" stroke-width="20" points="30660,29048 30644,28879 30982,28819 30974,29175 30728,29175 30745,29057 "/>
  <polygon fill="#F08365" stroke="#2B2A29" stroke-width="20" points="29069,33637 28840,33510 29289,32833 29517,32587 29644,32680 29670,32773 29941,32723 30009,33087 29805,33112 29805,33180 29644,33256 29399,33459 29374,33417 "/>
  <polygon fill="#F08365" stroke="#2B2A29" stroke-width="20" points="30186,33603 29949,32528 30254,32519 30432,32663 30483,32892 30694,33129 30711,33222 30415,33290 30356,33485 30398,33629 30220,33654 "/>
  <polygon fill="#F08365" stroke="#2B2A29" stroke-width="20" points="24497,33181 25699,34416 25005,35017 25005,35051 25072,35161 25157,35195 25208,35296 25547,35813 24954,36321 24463,35212 "/>
  <polygon fill="#F08365" stroke="#2B2A29" stroke-width="20" points="24564,37447 25140,36897 24945,36439 24691,36558 24708,36600 24624,36634 24514,36414 24437,36465 24404,37269 "/>
  <polygon fill="#F08683" stroke="#2B2A29" stroke-width="20" points="9494,50748 9604,49808 10535,49800 10315,50003 10340,50757 "/>
  <polygon fill="#F08683" stroke="#2B2A29" stroke-width="20" points="13617,48462 13617,48115 14194,48119 14184,48445 "/>
  <polygon fill="#F08683" stroke="#2B2A29" stroke-width="20" points="12906,49791 12974,49698 13278,49690 13261,50266 13134,50291 13143,50232 13007,50249 13058,49944 12906,49944 "/>
 </g>
 <g id="Г-2п">
  <metadata id="CorelCorpID_33Corel-Layer"/>
  <polygon fill="#F08683" stroke="#2B2A29" stroke-width="20" points="23616,10091 23480,9358 23853,9278 23997,10007 "/>
 </g>
 <g id="Г-2">
  <metadata id="CorelCorpID_34Corel-Layer"/>
  <polygon fill="#F08683" stroke="#2B2A29" stroke-width="20" points="21195,24468 21313,24002 21686,23977 21728,24501 21246,24535 "/>
  <polygon fill="#F08365" stroke="#2B2A29" stroke-width="20" points="30745,2505 31338,2336 31736,2446 31803,2641 31930,2683 32159,3369 31237,3865 31067,3326 30931,3352 30821,2979 30923,2962 "/>
  <polygon fill="#F08683" stroke="#2B2A29" stroke-width="20" points="23813,6264 23624,6040 23997,5650 24410,6038 23917,6554 23735,6364 "/>
  <polygon fill="#F08683" stroke="#2B2A29" stroke-width="20" points="22710,9363 22050,8779 22566,8254 22736,9067 22770,9134 22786,9304 "/>
  <polygon fill="#F08683" stroke="#2B2A29" stroke-width="20" points="23303,8491 24175,8305 24310,8855 23907,8941 23853,8745 23362,8872 "/>
  <polygon fill="#F08683" stroke="#2B2A29" stroke-width="20" points="23811,11006 23667,10303 23997,10311 23997,10464 24031,10498 24175,10506 24203,10598 24336,10591 24336,10963 "/>
  <polygon fill="#F08365" stroke="#2B2A29" stroke-width="20" points="18824,9930 18535,9656 18928,9270 19207,9556 "/>
  <polygon fill="#F08365" stroke="#2B2A29" stroke-width="20" points="22041,13088 21635,12792 21974,12690 22024,12580 21813,12326 22075,12064 22507,12496 "/>
  <polygon fill="#F08683" stroke="#2B2A29" stroke-width="20" points="21415,15569 21440,14875 22067,14833 22058,15019 22168,15070 22262,15070 22253,15434 22126,15442 22180,16150 21830,16187 21847,16238 22024,16213 22050,16314 22109,16323 22160,16526 22101,16543 22016,16644 21567,16695 21432,15789 21974,15738 21974,15611 21872,15569 "/>
  <polygon fill="#F08683" stroke="#2B2A29" stroke-width="20" points="23887,15171 24077,15072 24310,15010 24454,15628 24260,15628 23819,15324 23684,15332 23489,15391 23108,15366 23066,15383 22905,15273 22939,14756 23819,14655 23802,15010 "/>
  <polygon fill="#F08683" stroke="#2B2A29" stroke-width="20" points="21779,18084 22031,18054 22084,18355 21821,18397 "/>
  <polygon fill="#F08365" stroke="#2B2A29" stroke-width="20" points="23269,24434 23205,24105 23464,24070 23523,24391 "/>
  <polygon fill="#F08365" stroke="#2B2A29" stroke-width="20" points="30889,33358 30804,33087 31228,32960 31557,33116 31456,33358 31041,33485 "/>
  <polygon fill="#F08365" stroke="#2B2A29" stroke-width="20" points="25691,30394 25403,30115 25623,29835 25919,30098 "/>
  <polygon fill="#F08683" stroke="#2B2A29" stroke-width="20" points="17046,24070 16987,23477 17791,23367 17867,24061 17605,24087 17605,24205 "/>
  <polygon fill="#F08683" stroke="#2B2A29" stroke-width="20" points="19095,25687 19146,25382 19357,25424 19290,25729 "/>
  <polygon fill="#F08683" stroke="#2B2A29" stroke-width="20" points="29026,26610 28925,26677 28984,26813 29111,26745 "/>
 </g>
 <g id="Гп">
  <metadata id="CorelCorpID_35Corel-Layer"/>
  <polygon fill="#F08365" stroke="#2B2A29" stroke-width="20" points="20712,24400 20653,23926 20958,23883 21025,24425 "/>
  <polygon fill="#F08365" stroke="#2B2A29" stroke-width="20" points="33912,14367 33471,13935 33725,13554 34183,14172 "/>
  <polygon fill="#F08365" stroke="#2B2A29" stroke-width="20" points="26148,1895 26173,1591 26351,1633 26283,1929 "/>
  <polygon fill="#F08365" stroke="#2B2A29" stroke-width="20" points="24641,5333 24353,5028 24675,4994 24734,5291 "/>
  <polygon fill="#F08365" stroke="#2B2A29" stroke-width="20" points="19425,10972 18792,10462 18926,10328 19163,10531 19425,10252 19476,10320 19713,10074 20094,10421 19569,10955 "/>
  <polygon fill="#F08365" stroke="#2B2A29" stroke-width="20" points="12690,15270 12652,15230 15674,14612 15992,14594 15945,15027 15751,14951 14921,14985 "/>
  <polygon fill="#F08365" stroke="#2B2A29" stroke-width="20" points="12186,15628 12169,15324 12525,15264 12559,15620 "/>
  <polygon fill="#F08365" stroke="#2B2A29" stroke-width="20" points="15702,18589 15420,18405 15717,17991 15996,18168 "/>
  <polygon fill="#F08365" stroke="#2B2A29" stroke-width="20" points="15107,18609 15260,18439 15539,18634 15420,18812 "/>
  <polygon fill="#F08365" stroke="#2B2A29" stroke-width="20" points="17393,18973 17109,18775 17182,18549 17486,18609 "/>
  <polygon fill="#F08365" stroke="#2B2A29" stroke-width="20" points="30796,27431 30796,26982 31067,26940 31101,26982 30923,27295 30889,27482 "/>
  <polygon fill="#F08365" stroke="#2B2A29" stroke-width="20" points="16674,27829 16123,27914 16411,26821 16682,26889 16817,27744 16707,27744 "/>
  <polygon fill="#F08683" stroke="#2B2A29" stroke-width="20" points="30517,30191 30440,29429 30610,29438 30804,29802 30804,29962 30694,30208 "/>
  <polygon fill="#F08683" stroke="#2B2A29" stroke-width="20" points="31092,27930 31084,27660 31346,27820 31178,27867 31262,28168 31160,28218 "/>
  <polygon fill="#F08683" stroke="#2B2A29" stroke-width="20" points="13659,43865 13676,43543 13880,43543 13880,43450 13990,43433 14150,43424 14167,43636 14184,43678 14184,43780 14269,43780 14269,43873 14100,43839 "/>
  <polygon fill="#F08365" stroke="#2B2A29" stroke-width="20" points="10002,10117 9976,9719 10298,9744 10298,10007 10434,10303 10738,10650 11018,10794 11848,10802 11907,11183 11348,11217 11060,11183 10747,11099 10425,10853 10137,10506 "/>
  <polygon fill="#F08365" stroke="#2B2A29" stroke-width="20" points="12229,10337 12499,10142 12652,10548 12830,10515 13050,10548 13236,10675 13050,10802 12804,10955 12499,11073 12051,11166 12017,10870 12059,10616 "/>
  <polygon fill="#F08365" stroke="#2B2A29" stroke-width="20" points="12144,11564 12085,11319 12347,11268 12635,11192 12914,11065 13160,10929 13329,10819 13388,10980 13312,11243 13185,11387 13126,11954 12847,11962 12567,11903 12330,11734 "/>
  <polygon fill="#F08365" stroke="#2B2A29" stroke-width="20" points="10628,12707 10637,12504 10823,12496 10840,11598 11966,11590 11932,11336 11424,11361 11179,11370 10832,11319 10501,11336 10349,11412 10197,11564 10112,11759 10095,12013 10120,12284 10137,12707 "/>
  <polygon fill="#F08365" stroke="#2B2A29" stroke-width="20" points="14271,9483 14726,9109 14845,9253 14159,9871 14142,9812 14125,9642 "/>
  <polygon fill="#F08365" stroke="#2B2A29" stroke-width="20" points="14413,10049 14252,9998 14396,9871 14557,10023 "/>
  <polygon fill="#F08365" stroke="#2B2A29" stroke-width="20" points="15573,10904 14515,9761 14946,9372 15751,10523 15615,10675 15632,10777 15624,10870 "/>
 </g>
 <g id="В-5">
  <metadata id="CorelCorpID_36Corel-Layer"/>
  <polygon fill="#7688A1" stroke="#2B2A29" stroke-width="20" points="31592,5562 31456,5460 31533,5367 31651,5494 "/>
  <polygon fill="#7688A1" stroke="#2B2A29" stroke-width="20" points="17867,24061 17791,23367 17927,23342 17986,23985 18062,24036 18113,24349 18892,24552 18777,25017 17791,24772 17520,25729 16039,25348 16369,24171 16987,24290 17046,24070 17605,24205 17605,24087 "/>
  <polygon fill="#7688A1" stroke="#2B2A29" stroke-width="20" points="16411,26821 16479,26517 17444,26737 17469,26813 17275,27558 17292,27685 17021,27744 16814,27723 16682,26889 "/>
 </g>
 <g id="В-3">
  <metadata id="CorelCorpID_37Corel-Layer"/>
  <polygon fill="#C5C6C6" stroke="#2B2A29" stroke-width="20" points="20056,10387 19657,10015 20509,9233 20865,9609 "/>
 </g>
 <g id="Вп">
  <metadata id="CorelCorpID_38Corel-Layer"/>
  <polygon fill="#7688A1" stroke="#2B2A29" stroke-width="20" points="9189,15332 8850,8381 9494,8262 9536,8635 9468,8847 9054,9744 9028,9922 9037,10083 9130,10261 9689,10769 9739,10938 9993,15103 9832,15120 9680,15180 9587,15307 "/>
  <polygon fill="#7688A1" stroke="#2B2A29" stroke-width="20" points="10662,16822 10510,15705 11331,15569 11323,15501 12169,15324 12186,15628 12145,15766 12245,16560 11932,16644 11907,16738 12000,17178 12787,17102 12830,17389 11873,17652 11839,17533 11763,17576 11797,17813 11204,17999 11170,17931 11001,17982 10874,16924 11009,16738 "/>
 </g>
</svg>
